<svg width="174" height="80" viewBox="0 0 174 80" fill="none" xmlns="http://www.w3.org/2000/svg">
<rect x="0.5" y="0.5" width="172.569" height="79" rx="4.5" stroke="#9747FF" stroke-dasharray="10 5"/>
<path d="M24.0932 59.07C23.8599 59.07 23.6359 59.0233 23.4212 58.93C23.2066 58.8367 23.0339 58.6593 22.9032 58.398C22.7726 58.1367 22.7072 57.7587 22.7072 57.264C22.7072 56.7973 22.6559 56.4147 22.5532 56.116C22.4506 55.8173 22.3152 55.584 22.1472 55.416C21.9886 55.2387 21.8159 55.1127 21.6292 55.038C21.4426 54.9633 21.2606 54.926 21.0832 54.926H18.9412V59H17.4852V49.396H21.6572C22.1612 49.396 22.6139 49.4987 23.0152 49.704C23.4259 49.9093 23.7479 50.1987 23.9812 50.572C24.2239 50.9453 24.3452 51.3887 24.3452 51.902C24.3452 52.49 24.1912 53.0033 23.8832 53.442C23.5752 53.8713 23.1692 54.1373 22.6652 54.24V54.31C23.0012 54.4033 23.2766 54.5667 23.4912 54.8C23.7152 55.0333 23.8832 55.3227 23.9952 55.668C24.1072 56.004 24.1632 56.368 24.1632 56.76C24.1632 57.3947 24.2146 57.838 24.3172 58.09C24.4199 58.342 24.6066 58.5053 24.8772 58.58V58.944C24.7839 58.9907 24.6672 59.0233 24.5272 59.042C24.3966 59.0607 24.2519 59.07 24.0932 59.07ZM18.9412 53.75H21.2512C21.7832 53.75 22.1892 53.596 22.4692 53.288C22.7586 52.9707 22.9032 52.574 22.9032 52.098C22.9032 51.622 22.7632 51.2487 22.4832 50.978C22.2126 50.7073 21.8299 50.572 21.3352 50.572H18.9412V53.75ZM26.0618 59V49.396H32.3338L32.1378 50.586H27.5318V53.512H31.7038V54.674H27.5318V57.782H32.2218L32.4178 59H26.0618ZM33.4203 59L36.5423 49.396H38.3203L41.4563 59H39.9443L37.4103 50.838H37.3543L34.8763 59H33.4203ZM34.9883 56.844V55.71H39.8323V56.844H34.9883ZM42.6688 59V49.396H46.0148C46.5468 49.396 47.0415 49.466 47.4988 49.606C47.9561 49.746 48.3575 49.9747 48.7028 50.292C49.0481 50.6 49.3188 51.0107 49.5148 51.524C49.7108 52.028 49.8088 52.644 49.8088 53.372V55.024C49.8088 55.7333 49.7108 56.3447 49.5148 56.858C49.3188 57.362 49.0481 57.7727 48.7028 58.09C48.3575 58.398 47.9561 58.6267 47.4988 58.776C47.0415 58.9253 46.5468 59 46.0148 59H42.6688ZM44.1528 57.81H45.9168C46.3741 57.81 46.7801 57.7353 47.1348 57.586C47.4895 57.4273 47.7695 57.1567 47.9748 56.774C48.1895 56.3913 48.2968 55.85 48.2968 55.15V53.232C48.2968 52.5507 48.1895 52.0187 47.9748 51.636C47.7695 51.244 47.4895 50.9687 47.1348 50.81C46.7801 50.6513 46.3741 50.572 45.9168 50.572H44.1528V57.81ZM59.2619 59V49.396H61.2499L62.5799 56.956H62.6359L64.0219 49.396H65.9819V59H64.6659V51.104H64.5959L63.1819 59H61.8799L60.5079 51.104H60.4379V59H59.2619ZM70.9324 59.14C70.4191 59.14 69.9431 59.0653 69.5044 58.916C69.0751 58.7667 68.6971 58.5287 68.3704 58.202C68.0437 57.866 67.7871 57.4227 67.6004 56.872C67.4231 56.3213 67.3344 55.6447 67.3344 54.842V53.554C67.3344 52.7513 67.4277 52.0747 67.6144 51.524C67.8011 50.9733 68.0577 50.5347 68.3844 50.208C68.7111 49.872 69.0891 49.6293 69.5184 49.48C69.9571 49.3307 70.4237 49.256 70.9184 49.256H71.1144C71.6277 49.256 72.0991 49.3307 72.5284 49.48C72.9671 49.6293 73.3497 49.872 73.6764 50.208C74.0031 50.544 74.2551 50.9873 74.4324 51.538C74.6097 52.0887 74.6984 52.7607 74.6984 53.554V54.842C74.6984 55.6353 74.6097 56.3073 74.4324 56.858C74.2551 57.4087 74.0031 57.852 73.6764 58.188C73.3497 58.5147 72.9717 58.7573 72.5424 58.916C72.1131 59.0653 71.6417 59.14 71.1284 59.14H70.9324ZM71.0164 57.964C71.3244 57.964 71.6091 57.922 71.8704 57.838C72.1411 57.7447 72.3744 57.5953 72.5704 57.39C72.7664 57.1753 72.9204 56.886 73.0324 56.522C73.1444 56.1487 73.2004 55.6867 73.2004 55.136V53.246C73.2004 52.6953 73.1444 52.238 73.0324 51.874C72.9204 51.51 72.7664 51.2253 72.5704 51.02C72.3744 50.8053 72.1411 50.656 71.8704 50.572C71.6091 50.4787 71.3244 50.432 71.0164 50.432C70.7177 50.432 70.4331 50.4787 70.1624 50.572C69.9011 50.656 69.6724 50.8053 69.4764 51.02C69.2804 51.2253 69.1264 51.51 69.0144 51.874C68.9024 52.238 68.8464 52.6953 68.8464 53.246V55.136C68.8464 55.6867 68.9024 56.1487 69.0144 56.522C69.1264 56.886 69.2804 57.1753 69.4764 57.39C69.6724 57.5953 69.9011 57.7447 70.1624 57.838C70.4331 57.922 70.7177 57.964 71.0164 57.964ZM82.8549 59.07C82.6216 59.07 82.3976 59.0233 82.1829 58.93C81.9683 58.8367 81.7956 58.6593 81.6649 58.398C81.5343 58.1367 81.4689 57.7587 81.4689 57.264C81.4689 56.7973 81.4176 56.4147 81.3149 56.116C81.2123 55.8173 81.0769 55.584 80.9089 55.416C80.7503 55.2387 80.5776 55.1127 80.3909 55.038C80.2043 54.9633 80.0223 54.926 79.8449 54.926H77.7029V59H76.2469V49.396H80.4189C80.9229 49.396 81.3756 49.4987 81.7769 49.704C82.1876 49.9093 82.5096 50.1987 82.7429 50.572C82.9856 50.9453 83.1069 51.3887 83.1069 51.902C83.1069 52.49 82.9529 53.0033 82.6449 53.442C82.3369 53.8713 81.9309 54.1373 81.4269 54.24V54.31C81.7629 54.4033 82.0383 54.5667 82.2529 54.8C82.4769 55.0333 82.6449 55.3227 82.7569 55.668C82.8689 56.004 82.9249 56.368 82.9249 56.76C82.9249 57.3947 82.9763 57.838 83.0789 58.09C83.1816 58.342 83.3683 58.5053 83.6389 58.58V58.944C83.5456 58.9907 83.4289 59.0233 83.2889 59.042C83.1583 59.0607 83.0136 59.07 82.8549 59.07ZM77.7029 53.75H80.0129C80.5449 53.75 80.9509 53.596 81.2309 53.288C81.5203 52.9707 81.6649 52.574 81.6649 52.098C81.6649 51.622 81.5249 51.2487 81.2449 50.978C80.9743 50.7073 80.5916 50.572 80.0969 50.572H77.7029V53.75ZM84.8235 59V49.396H91.0955L90.8995 50.586H86.2935V53.512H90.4655V54.674H86.2935V57.782H90.9835L91.1795 59H84.8235Z" fill="#00B4FD"/>
<g clip-path="url(#clip0_24_3046)">
<path d="M98.4627 54.2338H109.38" stroke="#00B4FD" stroke-width="0.935782" stroke-linecap="round" stroke-linejoin="round"/>
<path d="M103.921 48.7753L109.38 54.234L103.921 59.6927" stroke="#00B4FD" stroke-width="0.935782" stroke-linecap="round" stroke-linejoin="round"/>
</g>
<line x1="16" y1="65.5" x2="110.569" y2="65.5" stroke="#00B4FD"/>
<path d="M24.0932 30.07C23.8599 30.07 23.6359 30.0233 23.4212 29.93C23.2066 29.8367 23.0339 29.6593 22.9032 29.398C22.7726 29.1367 22.7072 28.7587 22.7072 28.264C22.7072 27.7973 22.6559 27.4147 22.5532 27.116C22.4506 26.8173 22.3152 26.584 22.1472 26.416C21.9886 26.2387 21.8159 26.1127 21.6292 26.038C21.4426 25.9633 21.2606 25.926 21.0832 25.926H18.9412V30H17.4852V20.396H21.6572C22.1612 20.396 22.6139 20.4987 23.0152 20.704C23.4259 20.9093 23.7479 21.1987 23.9812 21.572C24.2239 21.9453 24.3452 22.3887 24.3452 22.902C24.3452 23.49 24.1912 24.0033 23.8832 24.442C23.5752 24.8713 23.1692 25.1373 22.6652 25.24V25.31C23.0012 25.4033 23.2766 25.5667 23.4912 25.8C23.7152 26.0333 23.8832 26.3227 23.9952 26.668C24.1072 27.004 24.1632 27.368 24.1632 27.76C24.1632 28.3947 24.2146 28.838 24.3172 29.09C24.4199 29.342 24.6066 29.5053 24.8772 29.58V29.944C24.7839 29.9907 24.6672 30.0233 24.5272 30.042C24.3966 30.0607 24.2519 30.07 24.0932 30.07ZM18.9412 24.75H21.2512C21.7832 24.75 22.1892 24.596 22.4692 24.288C22.7586 23.9707 22.9032 23.574 22.9032 23.098C22.9032 22.622 22.7632 22.2487 22.4832 21.978C22.2126 21.7073 21.8299 21.572 21.3352 21.572H18.9412V24.75ZM26.0618 30V20.396H32.3338L32.1378 21.586H27.5318V24.512H31.7038V25.674H27.5318V28.782H32.2218L32.4178 30H26.0618ZM33.4203 30L36.5423 20.396H38.3203L41.4563 30H39.9443L37.4103 21.838H37.3543L34.8763 30H33.4203ZM34.9883 27.844V26.71H39.8323V27.844H34.9883ZM42.6688 30V20.396H46.0148C46.5468 20.396 47.0415 20.466 47.4988 20.606C47.9561 20.746 48.3575 20.9747 48.7028 21.292C49.0481 21.6 49.3188 22.0107 49.5148 22.524C49.7108 23.028 49.8088 23.644 49.8088 24.372V26.024C49.8088 26.7333 49.7108 27.3447 49.5148 27.858C49.3188 28.362 49.0481 28.7727 48.7028 29.09C48.3575 29.398 47.9561 29.6267 47.4988 29.776C47.0415 29.9253 46.5468 30 46.0148 30H42.6688ZM44.1528 28.81H45.9168C46.3741 28.81 46.7801 28.7353 47.1348 28.586C47.4895 28.4273 47.7695 28.1567 47.9748 27.774C48.1895 27.3913 48.2968 26.85 48.2968 26.15V24.232C48.2968 23.5507 48.1895 23.0187 47.9748 22.636C47.7695 22.244 47.4895 21.9687 47.1348 21.81C46.7801 21.6513 46.3741 21.572 45.9168 21.572H44.1528V28.81ZM59.2619 30V20.396H61.2499L62.5799 27.956H62.6359L64.0219 20.396H65.9819V30H64.6659V22.104H64.5959L63.1819 30H61.8799L60.5079 22.104H60.4379V30H59.2619ZM70.9324 30.14C70.4191 30.14 69.9431 30.0653 69.5044 29.916C69.0751 29.7667 68.6971 29.5287 68.3704 29.202C68.0437 28.866 67.7871 28.4227 67.6004 27.872C67.4231 27.3213 67.3344 26.6447 67.3344 25.842V24.554C67.3344 23.7513 67.4277 23.0747 67.6144 22.524C67.8011 21.9733 68.0577 21.5347 68.3844 21.208C68.7111 20.872 69.0891 20.6293 69.5184 20.48C69.9571 20.3307 70.4237 20.256 70.9184 20.256H71.1144C71.6277 20.256 72.0991 20.3307 72.5284 20.48C72.9671 20.6293 73.3497 20.872 73.6764 21.208C74.0031 21.544 74.2551 21.9873 74.4324 22.538C74.6097 23.0887 74.6984 23.7607 74.6984 24.554V25.842C74.6984 26.6353 74.6097 27.3073 74.4324 27.858C74.2551 28.4087 74.0031 28.852 73.6764 29.188C73.3497 29.5147 72.9717 29.7573 72.5424 29.916C72.1131 30.0653 71.6417 30.14 71.1284 30.14H70.9324ZM71.0164 28.964C71.3244 28.964 71.6091 28.922 71.8704 28.838C72.1411 28.7447 72.3744 28.5953 72.5704 28.39C72.7664 28.1753 72.9204 27.886 73.0324 27.522C73.1444 27.1487 73.2004 26.6867 73.2004 26.136V24.246C73.2004 23.6953 73.1444 23.238 73.0324 22.874C72.9204 22.51 72.7664 22.2253 72.5704 22.02C72.3744 21.8053 72.1411 21.656 71.8704 21.572C71.6091 21.4787 71.3244 21.432 71.0164 21.432C70.7177 21.432 70.4331 21.4787 70.1624 21.572C69.9011 21.656 69.6724 21.8053 69.4764 22.02C69.2804 22.2253 69.1264 22.51 69.0144 22.874C68.9024 23.238 68.8464 23.6953 68.8464 24.246V26.136C68.8464 26.6867 68.9024 27.1487 69.0144 27.522C69.1264 27.886 69.2804 28.1753 69.4764 28.39C69.6724 28.5953 69.9011 28.7447 70.1624 28.838C70.4331 28.922 70.7177 28.964 71.0164 28.964ZM82.8549 30.07C82.6216 30.07 82.3976 30.0233 82.1829 29.93C81.9683 29.8367 81.7956 29.6593 81.6649 29.398C81.5343 29.1367 81.4689 28.7587 81.4689 28.264C81.4689 27.7973 81.4176 27.4147 81.3149 27.116C81.2123 26.8173 81.0769 26.584 80.9089 26.416C80.7503 26.2387 80.5776 26.1127 80.3909 26.038C80.2043 25.9633 80.0223 25.926 79.8449 25.926H77.7029V30H76.2469V20.396H80.4189C80.9229 20.396 81.3756 20.4987 81.7769 20.704C82.1876 20.9093 82.5096 21.1987 82.7429 21.572C82.9856 21.9453 83.1069 22.3887 83.1069 22.902C83.1069 23.49 82.9529 24.0033 82.6449 24.442C82.3369 24.8713 81.9309 25.1373 81.4269 25.24V25.31C81.7629 25.4033 82.0383 25.5667 82.2529 25.8C82.4769 26.0333 82.6449 26.3227 82.7569 26.668C82.8689 27.004 82.9249 27.368 82.9249 27.76C82.9249 28.3947 82.9763 28.838 83.0789 29.09C83.1816 29.342 83.3683 29.5053 83.6389 29.58V29.944C83.5456 29.9907 83.4289 30.0233 83.2889 30.042C83.1583 30.0607 83.0136 30.07 82.8549 30.07ZM77.7029 24.75H80.0129C80.5449 24.75 80.9509 24.596 81.2309 24.288C81.5203 23.9707 81.6649 23.574 81.6649 23.098C81.6649 22.622 81.5249 22.2487 81.2449 21.978C80.9743 21.7073 80.5916 21.572 80.0969 21.572H77.7029V24.75ZM84.8235 30V20.396H91.0955L90.8995 21.586H86.2935V24.512H90.4655V25.674H86.2935V28.782H90.9835L91.1795 30H84.8235Z" fill="#00B4FD"/>
<g clip-path="url(#clip1_24_3046)">
<path d="M98.4627 25.2338H109.38" stroke="#00B4FD" stroke-width="0.935782" stroke-linecap="round" stroke-linejoin="round"/>
<path d="M103.921 19.7753L109.38 25.234L103.921 30.6927" stroke="#00B4FD" stroke-width="0.935782" stroke-linecap="round" stroke-linejoin="round"/>
</g>
<line x1="16" y1="36.5" x2="48.5773" y2="36.5" stroke="#00B4FD"/>
<defs>
<clipPath id="clip0_24_3046">
<rect width="13.5688" height="14.5046" fill="white" transform="translate(110.569 61.2523) rotate(-180)"/>
</clipPath>
<clipPath id="clip1_24_3046">
<rect width="13.5688" height="14.5046" fill="white" transform="translate(110.569 32.2523) rotate(-180)"/>
</clipPath>
</defs>
</svg>
