<svg width="174" height="80" viewBox="0 0 174 80" fill="none" xmlns="http://www.w3.org/2000/svg">
<g clip-path="url(#clip0_24_2971)">
<path d="M23.937 59.07C23.7036 59.07 23.4796 59.0233 23.265 58.93C23.0503 58.8367 22.8776 58.6593 22.747 58.398C22.6163 58.1367 22.551 57.7587 22.551 57.264C22.551 56.7973 22.4996 56.4147 22.397 56.116C22.2943 55.8173 22.159 55.584 21.991 55.416C21.8323 55.2387 21.6596 55.1127 21.473 55.038C21.2863 54.9633 21.1043 54.926 20.927 54.926H18.785V59H17.329V49.396H21.501C22.005 49.396 22.4576 49.4987 22.859 49.704C23.2696 49.9093 23.5916 50.1987 23.825 50.572C24.0676 50.9453 24.189 51.3887 24.189 51.902C24.189 52.49 24.035 53.0033 23.727 53.442C23.419 53.8713 23.013 54.1373 22.509 54.24V54.31C22.845 54.4033 23.1203 54.5667 23.335 54.8C23.559 55.0333 23.727 55.3227 23.839 55.668C23.951 56.004 24.007 56.368 24.007 56.76C24.007 57.3947 24.0583 57.838 24.161 58.09C24.2636 58.342 24.4503 58.5053 24.721 58.58V58.944C24.6276 58.9907 24.511 59.0233 24.371 59.042C24.2403 59.0607 24.0956 59.07 23.937 59.07ZM18.785 53.75H21.095C21.627 53.75 22.033 53.596 22.313 53.288C22.6023 52.9707 22.747 52.574 22.747 52.098C22.747 51.622 22.607 51.2487 22.327 50.978C22.0563 50.7073 21.6736 50.572 21.179 50.572H18.785V53.75ZM25.9055 59V49.396H32.1775L31.9815 50.586H27.3755V53.512H31.5475V54.674H27.3755V57.782H32.0655L32.2615 59H25.9055ZM33.264 59L36.386 49.396H38.164L41.3 59H39.788L37.254 50.838H37.198L34.72 59H33.264ZM34.832 56.844V55.71H39.676V56.844H34.832ZM42.5126 59V49.396H45.8586C46.3906 49.396 46.8852 49.466 47.3426 49.606C47.7999 49.746 48.2012 49.9747 48.5466 50.292C48.8919 50.6 49.1626 51.0107 49.3586 51.524C49.5546 52.028 49.6526 52.644 49.6526 53.372V55.024C49.6526 55.7333 49.5546 56.3447 49.3586 56.858C49.1626 57.362 48.8919 57.7727 48.5466 58.09C48.2012 58.398 47.7999 58.6267 47.3426 58.776C46.8852 58.9253 46.3906 59 45.8586 59H42.5126ZM43.9966 57.81H45.7606C46.2179 57.81 46.6239 57.7353 46.9786 57.586C47.3332 57.4273 47.6132 57.1567 47.8186 56.774C48.0332 56.3913 48.1406 55.85 48.1406 55.15V53.232C48.1406 52.5507 48.0332 52.0187 47.8186 51.636C47.6132 51.244 47.3332 50.9687 46.9786 50.81C46.6239 50.6513 46.2179 50.572 45.7606 50.572H43.9966V57.81ZM58.4476 59L61.5696 49.396H63.3476L66.4836 59H64.9716L62.4376 50.838H62.3816L59.9036 59H58.4476ZM60.0156 56.844V55.71H64.8596V56.844H60.0156ZM68.1162 59V49.396H69.5862V57.768H73.9402L74.1362 59H68.1162ZM76.5107 59V49.396H77.9807V57.768H82.3347L82.5307 59H76.5107ZM93.3418 59V57.852H95.3018V50.544H93.3418V49.396H98.7458V50.544H96.7858V57.852H98.7458V59H93.3418ZM101.274 59V49.396H102.73L105.67 55.206L106.188 56.326H106.244V49.396H107.616V59H106.146L103.108 53.064L102.688 52.098L102.632 52.112V59H101.274ZM112.833 59.14C112.347 59.14 111.881 59.0887 111.433 58.986C110.994 58.8833 110.607 58.72 110.271 58.496C109.935 58.2627 109.669 57.964 109.473 57.6C109.277 57.236 109.179 56.7927 109.179 56.27C109.179 56.2327 109.179 56.1907 109.179 56.144C109.179 56.088 109.183 56.0367 109.193 55.99H110.579C110.569 56.046 110.565 56.0973 110.565 56.144C110.565 56.1907 110.565 56.242 110.565 56.298C110.565 56.6807 110.658 56.9933 110.845 57.236C111.031 57.4787 111.293 57.656 111.629 57.768C111.965 57.88 112.357 57.936 112.805 57.936C113.253 57.936 113.64 57.8893 113.967 57.796C114.293 57.6933 114.545 57.5253 114.723 57.292C114.909 57.0587 115.003 56.7507 115.003 56.368C115.003 56.0227 114.9 55.7473 114.695 55.542C114.489 55.3367 114.219 55.1733 113.883 55.052C113.556 54.9213 113.192 54.8047 112.791 54.702C112.399 54.5993 112.002 54.4873 111.601 54.366C111.209 54.2447 110.845 54.086 110.509 53.89C110.182 53.694 109.916 53.4327 109.711 53.106C109.505 52.77 109.403 52.3453 109.403 51.832C109.403 51.244 109.561 50.7587 109.879 50.376C110.196 49.9933 110.616 49.7133 111.139 49.536C111.661 49.3493 112.235 49.256 112.861 49.256C113.486 49.256 114.055 49.3493 114.569 49.536C115.082 49.7133 115.488 49.998 115.787 50.39C116.095 50.7727 116.249 51.2813 116.249 51.916V52.098H114.891V51.874C114.891 51.5567 114.802 51.2907 114.625 51.076C114.457 50.852 114.219 50.684 113.911 50.572C113.612 50.46 113.262 50.404 112.861 50.404C112.487 50.404 112.151 50.4507 111.853 50.544C111.554 50.6373 111.316 50.782 111.139 50.978C110.971 51.174 110.887 51.4307 110.887 51.748C110.887 52.0747 110.985 52.336 111.181 52.532C111.386 52.728 111.652 52.8867 111.979 53.008C112.315 53.12 112.683 53.2227 113.085 53.316C113.486 53.4093 113.883 53.5167 114.275 53.638C114.676 53.7593 115.04 53.918 115.367 54.114C115.703 54.31 115.973 54.576 116.179 54.912C116.393 55.2387 116.501 55.6587 116.501 56.172C116.501 56.8907 116.337 57.4693 116.011 57.908C115.693 58.3373 115.255 58.65 114.695 58.846C114.144 59.042 113.523 59.14 112.833 59.14ZM118.525 59V57.852H120.485V50.544H118.525V49.396H123.929V50.544H121.969V57.852H123.929V59H118.525ZM129.482 59.14C128.978 59.14 128.511 59.0653 128.082 58.916C127.653 58.7667 127.279 58.5287 126.962 58.202C126.645 57.866 126.393 57.4227 126.206 56.872C126.029 56.3213 125.94 55.6447 125.94 54.842V53.554C125.94 52.7513 126.029 52.0747 126.206 51.524C126.383 50.9733 126.631 50.5347 126.948 50.208C127.275 49.872 127.653 49.6293 128.082 49.48C128.521 49.3307 129.001 49.256 129.524 49.256H129.734C130.201 49.256 130.639 49.3213 131.05 49.452C131.461 49.5827 131.825 49.788 132.142 50.068C132.469 50.348 132.721 50.712 132.898 51.16C133.085 51.5987 133.178 52.1307 133.178 52.756H131.778C131.778 52.2053 131.685 51.762 131.498 51.426C131.321 51.0807 131.069 50.8287 130.742 50.67C130.425 50.5113 130.047 50.432 129.608 50.432C129.197 50.432 128.829 50.5113 128.502 50.67C128.175 50.8287 127.919 51.1133 127.732 51.524C127.545 51.9347 127.452 52.5087 127.452 53.246V55.136C127.452 55.6867 127.508 56.1487 127.62 56.522C127.732 56.886 127.886 57.1753 128.082 57.39C128.278 57.5953 128.507 57.7447 128.768 57.838C129.039 57.922 129.323 57.964 129.622 57.964C130.014 57.964 130.378 57.894 130.714 57.754C131.05 57.614 131.316 57.3713 131.512 57.026C131.708 56.6713 131.806 56.172 131.806 55.528V55.01H129.342V53.946H133.178V57.222C133.178 57.6047 133.187 57.9407 133.206 58.23C133.225 58.5193 133.248 58.776 133.276 59H132.408L132.128 57.796C131.876 58.244 131.517 58.58 131.05 58.804C130.583 59.028 130.089 59.14 129.566 59.14H129.482ZM134.852 59V49.396H136.28V53.484H139.752V49.396H141.194V59H139.752V54.702H136.28V59H134.852ZM145.683 59V50.614H142.701V49.396H150.121V50.614H147.139V59H145.683ZM154.805 59.14C154.32 59.14 153.853 59.0887 153.405 58.986C152.967 58.8833 152.579 58.72 152.243 58.496C151.907 58.2627 151.641 57.964 151.445 57.6C151.249 57.236 151.151 56.7927 151.151 56.27C151.151 56.2327 151.151 56.1907 151.151 56.144C151.151 56.088 151.156 56.0367 151.165 55.99H152.551C152.542 56.046 152.537 56.0973 152.537 56.144C152.537 56.1907 152.537 56.242 152.537 56.298C152.537 56.6807 152.631 56.9933 152.817 57.236C153.004 57.4787 153.265 57.656 153.601 57.768C153.937 57.88 154.329 57.936 154.777 57.936C155.225 57.936 155.613 57.8893 155.939 57.796C156.266 57.6933 156.518 57.5253 156.695 57.292C156.882 57.0587 156.975 56.7507 156.975 56.368C156.975 56.0227 156.873 55.7473 156.667 55.542C156.462 55.3367 156.191 55.1733 155.855 55.052C155.529 54.9213 155.165 54.8047 154.763 54.702C154.371 54.5993 153.975 54.4873 153.573 54.366C153.181 54.2447 152.817 54.086 152.481 53.89C152.155 53.694 151.889 53.4327 151.683 53.106C151.478 52.77 151.375 52.3453 151.375 51.832C151.375 51.244 151.534 50.7587 151.851 50.376C152.169 49.9933 152.589 49.7133 153.111 49.536C153.634 49.3493 154.208 49.256 154.833 49.256C155.459 49.256 156.028 49.3493 156.541 49.536C157.055 49.7133 157.461 49.998 157.759 50.39C158.067 50.7727 158.221 51.2813 158.221 51.916V52.098H156.863V51.874C156.863 51.5567 156.775 51.2907 156.597 51.076C156.429 50.852 156.191 50.684 155.883 50.572C155.585 50.46 155.235 50.404 154.833 50.404C154.46 50.404 154.124 50.4507 153.825 50.544C153.527 50.6373 153.289 50.782 153.111 50.978C152.943 51.174 152.859 51.4307 152.859 51.748C152.859 52.0747 152.957 52.336 153.153 52.532C153.359 52.728 153.625 52.8867 153.951 53.008C154.287 53.12 154.656 53.2227 155.057 53.316C155.459 53.4093 155.855 53.5167 156.247 53.638C156.649 53.7593 157.013 53.918 157.339 54.114C157.675 54.31 157.946 54.576 158.151 54.912C158.366 55.2387 158.473 55.6587 158.473 56.172C158.473 56.8907 158.31 57.4693 157.983 57.908C157.666 58.3373 157.227 58.65 156.667 58.846C156.117 59.042 155.496 59.14 154.805 59.14Z" fill="#00B4FD"/>
<g clip-path="url(#clip1_24_2971)">
<path d="M165.463 54.2338H176.38" stroke="#00B4FD" stroke-width="0.935782" stroke-linecap="round" stroke-linejoin="round"/>
<path d="M170.921 48.7753L176.38 54.234L170.921 59.6927" stroke="#00B4FD" stroke-width="0.935782" stroke-linecap="round" stroke-linejoin="round"/>
</g>
<line x1="16" y1="65.5" x2="177.569" y2="65.5" stroke="#00B4FD"/>
<path d="M23.937 30.07C23.7036 30.07 23.4796 30.0233 23.265 29.93C23.0503 29.8367 22.8776 29.6593 22.747 29.398C22.6163 29.1367 22.551 28.7587 22.551 28.264C22.551 27.7973 22.4996 27.4147 22.397 27.116C22.2943 26.8173 22.159 26.584 21.991 26.416C21.8323 26.2387 21.6596 26.1127 21.473 26.038C21.2863 25.9633 21.1043 25.926 20.927 25.926H18.785V30H17.329V20.396H21.501C22.005 20.396 22.4576 20.4987 22.859 20.704C23.2696 20.9093 23.5916 21.1987 23.825 21.572C24.0676 21.9453 24.189 22.3887 24.189 22.902C24.189 23.49 24.035 24.0033 23.727 24.442C23.419 24.8713 23.013 25.1373 22.509 25.24V25.31C22.845 25.4033 23.1203 25.5667 23.335 25.8C23.559 26.0333 23.727 26.3227 23.839 26.668C23.951 27.004 24.007 27.368 24.007 27.76C24.007 28.3947 24.0583 28.838 24.161 29.09C24.2636 29.342 24.4503 29.5053 24.721 29.58V29.944C24.6276 29.9907 24.511 30.0233 24.371 30.042C24.2403 30.0607 24.0956 30.07 23.937 30.07ZM18.785 24.75H21.095C21.627 24.75 22.033 24.596 22.313 24.288C22.6023 23.9707 22.747 23.574 22.747 23.098C22.747 22.622 22.607 22.2487 22.327 21.978C22.0563 21.7073 21.6736 21.572 21.179 21.572H18.785V24.75ZM25.9055 30V20.396H32.1775L31.9815 21.586H27.3755V24.512H31.5475V25.674H27.3755V28.782H32.0655L32.2615 30H25.9055ZM33.264 30L36.386 20.396H38.164L41.3 30H39.788L37.254 21.838H37.198L34.72 30H33.264ZM34.832 27.844V26.71H39.676V27.844H34.832ZM42.5126 30V20.396H45.8586C46.3906 20.396 46.8852 20.466 47.3426 20.606C47.7999 20.746 48.2012 20.9747 48.5466 21.292C48.8919 21.6 49.1626 22.0107 49.3586 22.524C49.5546 23.028 49.6526 23.644 49.6526 24.372V26.024C49.6526 26.7333 49.5546 27.3447 49.3586 27.858C49.1626 28.362 48.8919 28.7727 48.5466 29.09C48.2012 29.398 47.7999 29.6267 47.3426 29.776C46.8852 29.9253 46.3906 30 45.8586 30H42.5126ZM43.9966 28.81H45.7606C46.2179 28.81 46.6239 28.7353 46.9786 28.586C47.3332 28.4273 47.6132 28.1567 47.8186 27.774C48.0332 27.3913 48.1406 26.85 48.1406 26.15V24.232C48.1406 23.5507 48.0332 23.0187 47.8186 22.636C47.6132 22.244 47.3332 21.9687 46.9786 21.81C46.6239 21.6513 46.2179 21.572 45.7606 21.572H43.9966V28.81ZM58.4476 30L61.5696 20.396H63.3476L66.4836 30H64.9716L62.4376 21.838H62.3816L59.9036 30H58.4476ZM60.0156 27.844V26.71H64.8596V27.844H60.0156ZM68.1162 30V20.396H69.5862V28.768H73.9402L74.1362 30H68.1162ZM76.5107 30V20.396H77.9807V28.768H82.3347L82.5307 30H76.5107ZM93.3418 30V28.852H95.3018V21.544H93.3418V20.396H98.7458V21.544H96.7858V28.852H98.7458V30H93.3418ZM101.274 30V20.396H102.73L105.67 26.206L106.188 27.326H106.244V20.396H107.616V30H106.146L103.108 24.064L102.688 23.098L102.632 23.112V30H101.274ZM112.833 30.14C112.347 30.14 111.881 30.0887 111.433 29.986C110.994 29.8833 110.607 29.72 110.271 29.496C109.935 29.2627 109.669 28.964 109.473 28.6C109.277 28.236 109.179 27.7927 109.179 27.27C109.179 27.2327 109.179 27.1907 109.179 27.144C109.179 27.088 109.183 27.0367 109.193 26.99H110.579C110.569 27.046 110.565 27.0973 110.565 27.144C110.565 27.1907 110.565 27.242 110.565 27.298C110.565 27.6807 110.658 27.9933 110.845 28.236C111.031 28.4787 111.293 28.656 111.629 28.768C111.965 28.88 112.357 28.936 112.805 28.936C113.253 28.936 113.64 28.8893 113.967 28.796C114.293 28.6933 114.545 28.5253 114.723 28.292C114.909 28.0587 115.003 27.7507 115.003 27.368C115.003 27.0227 114.9 26.7473 114.695 26.542C114.489 26.3367 114.219 26.1733 113.883 26.052C113.556 25.9213 113.192 25.8047 112.791 25.702C112.399 25.5993 112.002 25.4873 111.601 25.366C111.209 25.2447 110.845 25.086 110.509 24.89C110.182 24.694 109.916 24.4327 109.711 24.106C109.505 23.77 109.403 23.3453 109.403 22.832C109.403 22.244 109.561 21.7587 109.879 21.376C110.196 20.9933 110.616 20.7133 111.139 20.536C111.661 20.3493 112.235 20.256 112.861 20.256C113.486 20.256 114.055 20.3493 114.569 20.536C115.082 20.7133 115.488 20.998 115.787 21.39C116.095 21.7727 116.249 22.2813 116.249 22.916V23.098H114.891V22.874C114.891 22.5567 114.802 22.2907 114.625 22.076C114.457 21.852 114.219 21.684 113.911 21.572C113.612 21.46 113.262 21.404 112.861 21.404C112.487 21.404 112.151 21.4507 111.853 21.544C111.554 21.6373 111.316 21.782 111.139 21.978C110.971 22.174 110.887 22.4307 110.887 22.748C110.887 23.0747 110.985 23.336 111.181 23.532C111.386 23.728 111.652 23.8867 111.979 24.008C112.315 24.12 112.683 24.2227 113.085 24.316C113.486 24.4093 113.883 24.5167 114.275 24.638C114.676 24.7593 115.04 24.918 115.367 25.114C115.703 25.31 115.973 25.576 116.179 25.912C116.393 26.2387 116.501 26.6587 116.501 27.172C116.501 27.8907 116.337 28.4693 116.011 28.908C115.693 29.3373 115.255 29.65 114.695 29.846C114.144 30.042 113.523 30.14 112.833 30.14ZM118.525 30V28.852H120.485V21.544H118.525V20.396H123.929V21.544H121.969V28.852H123.929V30H118.525ZM129.482 30.14C128.978 30.14 128.511 30.0653 128.082 29.916C127.653 29.7667 127.279 29.5287 126.962 29.202C126.645 28.866 126.393 28.4227 126.206 27.872C126.029 27.3213 125.94 26.6447 125.94 25.842V24.554C125.94 23.7513 126.029 23.0747 126.206 22.524C126.383 21.9733 126.631 21.5347 126.948 21.208C127.275 20.872 127.653 20.6293 128.082 20.48C128.521 20.3307 129.001 20.256 129.524 20.256H129.734C130.201 20.256 130.639 20.3213 131.05 20.452C131.461 20.5827 131.825 20.788 132.142 21.068C132.469 21.348 132.721 21.712 132.898 22.16C133.085 22.5987 133.178 23.1307 133.178 23.756H131.778C131.778 23.2053 131.685 22.762 131.498 22.426C131.321 22.0807 131.069 21.8287 130.742 21.67C130.425 21.5113 130.047 21.432 129.608 21.432C129.197 21.432 128.829 21.5113 128.502 21.67C128.175 21.8287 127.919 22.1133 127.732 22.524C127.545 22.9347 127.452 23.5087 127.452 24.246V26.136C127.452 26.6867 127.508 27.1487 127.62 27.522C127.732 27.886 127.886 28.1753 128.082 28.39C128.278 28.5953 128.507 28.7447 128.768 28.838C129.039 28.922 129.323 28.964 129.622 28.964C130.014 28.964 130.378 28.894 130.714 28.754C131.05 28.614 131.316 28.3713 131.512 28.026C131.708 27.6713 131.806 27.172 131.806 26.528V26.01H129.342V24.946H133.178V28.222C133.178 28.6047 133.187 28.9407 133.206 29.23C133.225 29.5193 133.248 29.776 133.276 30H132.408L132.128 28.796C131.876 29.244 131.517 29.58 131.05 29.804C130.583 30.028 130.089 30.14 129.566 30.14H129.482ZM134.852 30V20.396H136.28V24.484H139.752V20.396H141.194V30H139.752V25.702H136.28V30H134.852ZM145.683 30V21.614H142.701V20.396H150.121V21.614H147.139V30H145.683ZM154.805 30.14C154.32 30.14 153.853 30.0887 153.405 29.986C152.967 29.8833 152.579 29.72 152.243 29.496C151.907 29.2627 151.641 28.964 151.445 28.6C151.249 28.236 151.151 27.7927 151.151 27.27C151.151 27.2327 151.151 27.1907 151.151 27.144C151.151 27.088 151.156 27.0367 151.165 26.99H152.551C152.542 27.046 152.537 27.0973 152.537 27.144C152.537 27.1907 152.537 27.242 152.537 27.298C152.537 27.6807 152.631 27.9933 152.817 28.236C153.004 28.4787 153.265 28.656 153.601 28.768C153.937 28.88 154.329 28.936 154.777 28.936C155.225 28.936 155.613 28.8893 155.939 28.796C156.266 28.6933 156.518 28.5253 156.695 28.292C156.882 28.0587 156.975 27.7507 156.975 27.368C156.975 27.0227 156.873 26.7473 156.667 26.542C156.462 26.3367 156.191 26.1733 155.855 26.052C155.529 25.9213 155.165 25.8047 154.763 25.702C154.371 25.5993 153.975 25.4873 153.573 25.366C153.181 25.2447 152.817 25.086 152.481 24.89C152.155 24.694 151.889 24.4327 151.683 24.106C151.478 23.77 151.375 23.3453 151.375 22.832C151.375 22.244 151.534 21.7587 151.851 21.376C152.169 20.9933 152.589 20.7133 153.111 20.536C153.634 20.3493 154.208 20.256 154.833 20.256C155.459 20.256 156.028 20.3493 156.541 20.536C157.055 20.7133 157.461 20.998 157.759 21.39C158.067 21.7727 158.221 22.2813 158.221 22.916V23.098H156.863V22.874C156.863 22.5567 156.775 22.2907 156.597 22.076C156.429 21.852 156.191 21.684 155.883 21.572C155.585 21.46 155.235 21.404 154.833 21.404C154.46 21.404 154.124 21.4507 153.825 21.544C153.527 21.6373 153.289 21.782 153.111 21.978C152.943 22.174 152.859 22.4307 152.859 22.748C152.859 23.0747 152.957 23.336 153.153 23.532C153.359 23.728 153.625 23.8867 153.951 24.008C154.287 24.12 154.656 24.2227 155.057 24.316C155.459 24.4093 155.855 24.5167 156.247 24.638C156.649 24.7593 157.013 24.918 157.339 25.114C157.675 25.31 157.946 25.576 158.151 25.912C158.366 26.2387 158.473 26.6587 158.473 27.172C158.473 27.8907 158.31 28.4693 157.983 28.908C157.666 29.3373 157.227 29.65 156.667 29.846C156.117 30.042 155.496 30.14 154.805 30.14Z" fill="#00B4FD"/>
<g clip-path="url(#clip2_24_2971)">
<path d="M165.463 25.2338H176.38" stroke="#00B4FD" stroke-width="0.935782" stroke-linecap="round" stroke-linejoin="round"/>
<path d="M170.921 19.7753L176.38 25.234L170.921 30.6927" stroke="#00B4FD" stroke-width="0.935782" stroke-linecap="round" stroke-linejoin="round"/>
</g>
<line x1="16" y1="36.5" x2="48.5773" y2="36.5" stroke="#00B4FD"/>
</g>
<rect x="0.5" y="0.5" width="172.569" height="79" rx="4.5" stroke="#9747FF" stroke-dasharray="10 5"/>
<defs>
<clipPath id="clip0_24_2971">
<rect width="173.569" height="80" rx="5" fill="white"/>
</clipPath>
<clipPath id="clip1_24_2971">
<rect width="13.5688" height="14.5046" fill="white" transform="translate(177.569 61.2523) rotate(-180)"/>
</clipPath>
<clipPath id="clip2_24_2971">
<rect width="13.5688" height="14.5046" fill="white" transform="translate(177.569 32.2523) rotate(-180)"/>
</clipPath>
</defs>
</svg>
