<svg width="174" height="80" viewBox="0 0 174 80" fill="none" xmlns="http://www.w3.org/2000/svg">
<rect x="0.5" y="0.5" width="172.569" height="79" rx="4.5" stroke="#9747FF" stroke-dasharray="10 5"/>
<path d="M20.1618 59L17.0258 49.396H18.5378L21.0718 57.558H21.1278L23.6198 49.396H25.0618L21.9398 59H20.1618ZM26.7363 59V57.852H28.6963V50.544H26.7363V49.396H32.1403V50.544H30.1803V57.852H32.1403V59H26.7363ZM34.8508 59V49.396H41.1228L40.9268 50.586H36.3208V53.512H40.4928V54.674H36.3208V57.782H41.0108L41.2068 59H34.8508ZM43.5253 59L42.0273 49.396H43.3433L44.5193 56.578H44.5753L45.6813 49.396H46.9273L48.0473 56.578H48.1033L49.2513 49.396H50.4273L48.9293 59H47.3613L46.2553 52.042H46.1993L45.1073 59H43.5253ZM58.9984 59L62.1204 49.396H63.8984L67.0344 59H65.5224L62.9884 50.838H62.9324L60.4544 59H58.9984ZM60.5664 56.844V55.71H65.4104V56.844H60.5664ZM68.6669 59V49.396H70.1369V57.768H74.4909L74.6869 59H68.6669ZM77.0615 59V49.396H78.5315V57.768H82.8855L83.0815 59H77.0615Z" fill="#00B4FD"/>
<g clip-path="url(#clip0_106_1678)">
<path d="M90.4627 54.2338H101.38" stroke="#00B4FD" stroke-width="0.935782" stroke-linecap="round" stroke-linejoin="round"/>
<path d="M95.9215 48.7753L101.38 54.234L95.9215 59.6927" stroke="#00B4FD" stroke-width="0.935782" stroke-linecap="round" stroke-linejoin="round"/>
</g>
<line x1="16" y1="65.5" x2="102.569" y2="65.5" stroke="#00B4FD"/>
<path d="M20.1618 30L17.0258 20.396H18.5378L21.0718 28.558H21.1278L23.6198 20.396H25.0618L21.9398 30H20.1618ZM26.7363 30V28.852H28.6963V21.544H26.7363V20.396H32.1403V21.544H30.1803V28.852H32.1403V30H26.7363ZM34.8508 30V20.396H41.1228L40.9268 21.586H36.3208V24.512H40.4928V25.674H36.3208V28.782H41.0108L41.2068 30H34.8508ZM43.5253 30L42.0273 20.396H43.3433L44.5193 27.578H44.5753L45.6813 20.396H46.9273L48.0473 27.578H48.1033L49.2513 20.396H50.4273L48.9293 30H47.3613L46.2553 23.042H46.1993L45.1073 30H43.5253ZM58.9984 30L62.1204 20.396H63.8984L67.0344 30H65.5224L62.9884 21.838H62.9324L60.4544 30H58.9984ZM60.5664 27.844V26.71H65.4104V27.844H60.5664ZM68.6669 30V20.396H70.1369V28.768H74.4909L74.6869 30H68.6669ZM77.0615 30V20.396H78.5315V28.768H82.8855L83.0815 30H77.0615Z" fill="#00B4FD"/>
<g clip-path="url(#clip1_106_1678)">
<path d="M90.4627 25.2338H101.38" stroke="#00B4FD" stroke-width="0.935782" stroke-linecap="round" stroke-linejoin="round"/>
<path d="M95.9215 19.7753L101.38 25.234L95.9215 30.6927" stroke="#00B4FD" stroke-width="0.935782" stroke-linecap="round" stroke-linejoin="round"/>
</g>
<line x1="16" y1="36.5" x2="48.5773" y2="36.5" stroke="#00B4FD"/>
<defs>
<clipPath id="clip0_106_1678">
<rect width="13.5688" height="14.5046" fill="white" transform="translate(102.569 61.2523) rotate(-180)"/>
</clipPath>
<clipPath id="clip1_106_1678">
<rect width="13.5688" height="14.5046" fill="white" transform="translate(102.569 32.2523) rotate(-180)"/>
</clipPath>
</defs>
</svg>
