<svg width="174" height="80" viewBox="0 0 174 80" fill="none" xmlns="http://www.w3.org/2000/svg">
<rect x="0.5" y="0.5" width="172.569" height="79" rx="4.5" stroke="#9747FF" stroke-dasharray="10 5"/>
<path d="M17.5107 59V49.396H18.9807V57.768H23.3347L23.5307 59H17.5107ZM25.6672 59V49.396H31.9392L31.7432 50.586H27.1372V53.512H31.3092V54.674H27.1372V57.782H31.8272L32.0232 59H25.6672ZM33.0258 59L36.1478 49.396H37.9258L41.0618 59H39.5498L37.0158 50.838H36.9597L34.4818 59H33.0258ZM34.5938 56.844V55.71H39.4378V56.844H34.5938ZM48.8823 59.07C48.6489 59.07 48.4249 59.0233 48.2103 58.93C47.9956 58.8367 47.8229 58.6593 47.6923 58.398C47.5616 58.1367 47.4963 57.7587 47.4963 57.264C47.4963 56.7973 47.4449 56.4147 47.3423 56.116C47.2396 55.8173 47.1043 55.584 46.9363 55.416C46.7776 55.2387 46.6049 55.1127 46.4183 55.038C46.2316 54.9633 46.0496 54.926 45.8723 54.926H43.7303V59H42.2743V49.396H46.4463C46.9503 49.396 47.4029 49.4987 47.8043 49.704C48.2149 49.9093 48.5369 50.1987 48.7703 50.572C49.0129 50.9453 49.1343 51.3887 49.1343 51.902C49.1343 52.49 48.9803 53.0033 48.6723 53.442C48.3643 53.8713 47.9583 54.1373 47.4543 54.24V54.31C47.7903 54.4033 48.0656 54.5667 48.2803 54.8C48.5043 55.0333 48.6723 55.3227 48.7843 55.668C48.8963 56.004 48.9523 56.368 48.9523 56.76C48.9523 57.3947 49.0036 57.838 49.1063 58.09C49.2089 58.342 49.3956 58.5053 49.6663 58.58V58.944C49.5729 58.9907 49.4563 59.0233 49.3163 59.042C49.1856 59.0607 49.0409 59.07 48.8823 59.07ZM43.7303 53.75H46.0403C46.5723 53.75 46.9783 53.596 47.2583 53.288C47.5476 52.9707 47.6923 52.574 47.6923 52.098C47.6923 51.622 47.5523 51.2487 47.2723 50.978C47.0016 50.7073 46.6189 50.572 46.1243 50.572H43.7303V53.75ZM50.6688 59V49.396H52.1248L55.0648 55.206L55.5828 56.326H55.6388V49.396H57.0108V59H55.5408L52.5028 53.064L52.0828 52.098L52.0268 52.112V59H50.6688ZM67.2619 59V49.396H69.2499L70.5799 56.956H70.6359L72.0219 49.396H73.9819V59H72.6659V51.104H72.5959L71.1819 59H69.8799L68.5079 51.104H68.4379V59H67.2619ZM78.9324 59.14C78.4191 59.14 77.9431 59.0653 77.5044 58.916C77.0751 58.7667 76.6971 58.5287 76.3704 58.202C76.0437 57.866 75.7871 57.4227 75.6004 56.872C75.4231 56.3213 75.3344 55.6447 75.3344 54.842V53.554C75.3344 52.7513 75.4277 52.0747 75.6144 51.524C75.8011 50.9733 76.0577 50.5347 76.3844 50.208C76.7111 49.872 77.0891 49.6293 77.5184 49.48C77.9571 49.3307 78.4237 49.256 78.9184 49.256H79.1144C79.6277 49.256 80.0991 49.3307 80.5284 49.48C80.9671 49.6293 81.3497 49.872 81.6764 50.208C82.0031 50.544 82.2551 50.9873 82.4324 51.538C82.6097 52.0887 82.6984 52.7607 82.6984 53.554V54.842C82.6984 55.6353 82.6097 56.3073 82.4324 56.858C82.2551 57.4087 82.0031 57.852 81.6764 58.188C81.3497 58.5147 80.9717 58.7573 80.5424 58.916C80.1131 59.0653 79.6417 59.14 79.1284 59.14H78.9324ZM79.0164 57.964C79.3244 57.964 79.6091 57.922 79.8704 57.838C80.1411 57.7447 80.3744 57.5953 80.5704 57.39C80.7664 57.1753 80.9204 56.886 81.0324 56.522C81.1444 56.1487 81.2004 55.6867 81.2004 55.136V53.246C81.2004 52.6953 81.1444 52.238 81.0324 51.874C80.9204 51.51 80.7664 51.2253 80.5704 51.02C80.3744 50.8053 80.1411 50.656 79.8704 50.572C79.6091 50.4787 79.3244 50.432 79.0164 50.432C78.7177 50.432 78.4331 50.4787 78.1624 50.572C77.9011 50.656 77.6724 50.8053 77.4764 51.02C77.2804 51.2253 77.1264 51.51 77.0144 51.874C76.9024 52.238 76.8464 52.6953 76.8464 53.246V55.136C76.8464 55.6867 76.9024 56.1487 77.0144 56.522C77.1264 56.886 77.2804 57.1753 77.4764 57.39C77.6724 57.5953 77.9011 57.7447 78.1624 57.838C78.4331 57.922 78.7177 57.964 79.0164 57.964ZM90.8549 59.07C90.6216 59.07 90.3976 59.0233 90.1829 58.93C89.9683 58.8367 89.7956 58.6593 89.6649 58.398C89.5343 58.1367 89.4689 57.7587 89.4689 57.264C89.4689 56.7973 89.4176 56.4147 89.3149 56.116C89.2123 55.8173 89.0769 55.584 88.9089 55.416C88.7503 55.2387 88.5776 55.1127 88.3909 55.038C88.2043 54.9633 88.0223 54.926 87.8449 54.926H85.7029V59H84.2469V49.396H88.4189C88.9229 49.396 89.3756 49.4987 89.7769 49.704C90.1876 49.9093 90.5096 50.1987 90.7429 50.572C90.9856 50.9453 91.1069 51.3887 91.1069 51.902C91.1069 52.49 90.9529 53.0033 90.6449 53.442C90.3369 53.8713 89.9309 54.1373 89.4269 54.24V54.31C89.7629 54.4033 90.0383 54.5667 90.2529 54.8C90.4769 55.0333 90.6449 55.3227 90.7569 55.668C90.8689 56.004 90.9249 56.368 90.9249 56.76C90.9249 57.3947 90.9763 57.838 91.0789 58.09C91.1816 58.342 91.3683 58.5053 91.6389 58.58V58.944C91.5456 58.9907 91.4289 59.0233 91.2889 59.042C91.1583 59.0607 91.0136 59.07 90.8549 59.07ZM85.7029 53.75H88.0129C88.5449 53.75 88.9509 53.596 89.2309 53.288C89.5203 52.9707 89.6649 52.574 89.6649 52.098C89.6649 51.622 89.5249 51.2487 89.2449 50.978C88.9743 50.7073 88.5916 50.572 88.0969 50.572H85.7029V53.75ZM92.8235 59V49.396H99.0955L98.8995 50.586H94.2935V53.512H98.4655V54.674H94.2935V57.782H98.9835L99.1795 59H92.8235Z" fill="url(#paint0_linear_57_172)"/>
<g clip-path="url(#clip0_57_172)">
<path d="M106.463 54.2338H117.38" stroke="url(#paint1_linear_57_172)" stroke-width="0.935782" stroke-linecap="round" stroke-linejoin="round"/>
<path d="M111.921 48.7753L117.38 54.234L111.921 59.6927" stroke="url(#paint2_linear_57_172)" stroke-width="0.935782" stroke-linecap="round" stroke-linejoin="round"/>
</g>
<line x1="16" y1="65.5" x2="118.569" y2="65.5" stroke="url(#paint3_linear_57_172)"/>
<path d="M17.5107 30V20.396H18.9807V28.768H23.3347L23.5307 30H17.5107ZM25.6672 30V20.396H31.9392L31.7432 21.586H27.1372V24.512H31.3092V25.674H27.1372V28.782H31.8272L32.0232 30H25.6672ZM33.0258 30L36.1478 20.396H37.9258L41.0618 30H39.5498L37.0158 21.838H36.9597L34.4818 30H33.0258ZM34.5938 27.844V26.71H39.4378V27.844H34.5938ZM48.8823 30.07C48.6489 30.07 48.4249 30.0233 48.2103 29.93C47.9956 29.8367 47.8229 29.6593 47.6923 29.398C47.5616 29.1367 47.4963 28.7587 47.4963 28.264C47.4963 27.7973 47.4449 27.4147 47.3423 27.116C47.2396 26.8173 47.1043 26.584 46.9363 26.416C46.7776 26.2387 46.6049 26.1127 46.4183 26.038C46.2316 25.9633 46.0496 25.926 45.8723 25.926H43.7303V30H42.2743V20.396H46.4463C46.9503 20.396 47.4029 20.4987 47.8043 20.704C48.2149 20.9093 48.5369 21.1987 48.7703 21.572C49.0129 21.9453 49.1343 22.3887 49.1343 22.902C49.1343 23.49 48.9803 24.0033 48.6723 24.442C48.3643 24.8713 47.9583 25.1373 47.4543 25.24V25.31C47.7903 25.4033 48.0656 25.5667 48.2803 25.8C48.5043 26.0333 48.6723 26.3227 48.7843 26.668C48.8963 27.004 48.9523 27.368 48.9523 27.76C48.9523 28.3947 49.0036 28.838 49.1063 29.09C49.2089 29.342 49.3956 29.5053 49.6663 29.58V29.944C49.5729 29.9907 49.4563 30.0233 49.3163 30.042C49.1856 30.0607 49.0409 30.07 48.8823 30.07ZM43.7303 24.75H46.0403C46.5723 24.75 46.9783 24.596 47.2583 24.288C47.5476 23.9707 47.6923 23.574 47.6923 23.098C47.6923 22.622 47.5523 22.2487 47.2723 21.978C47.0016 21.7073 46.6189 21.572 46.1243 21.572H43.7303V24.75ZM50.6688 30V20.396H52.1248L55.0648 26.206L55.5828 27.326H55.6388V20.396H57.0108V30H55.5408L52.5028 24.064L52.0828 23.098L52.0268 23.112V30H50.6688ZM67.2619 30V20.396H69.2499L70.5799 27.956H70.6359L72.0219 20.396H73.9819V30H72.6659V22.104H72.5959L71.1819 30H69.8799L68.5079 22.104H68.4379V30H67.2619ZM78.9324 30.14C78.4191 30.14 77.9431 30.0653 77.5044 29.916C77.0751 29.7667 76.6971 29.5287 76.3704 29.202C76.0437 28.866 75.7871 28.4227 75.6004 27.872C75.4231 27.3213 75.3344 26.6447 75.3344 25.842V24.554C75.3344 23.7513 75.4277 23.0747 75.6144 22.524C75.8011 21.9733 76.0577 21.5347 76.3844 21.208C76.7111 20.872 77.0891 20.6293 77.5184 20.48C77.9571 20.3307 78.4237 20.256 78.9184 20.256H79.1144C79.6277 20.256 80.0991 20.3307 80.5284 20.48C80.9671 20.6293 81.3497 20.872 81.6764 21.208C82.0031 21.544 82.2551 21.9873 82.4324 22.538C82.6097 23.0887 82.6984 23.7607 82.6984 24.554V25.842C82.6984 26.6353 82.6097 27.3073 82.4324 27.858C82.2551 28.4087 82.0031 28.852 81.6764 29.188C81.3497 29.5147 80.9717 29.7573 80.5424 29.916C80.1131 30.0653 79.6417 30.14 79.1284 30.14H78.9324ZM79.0164 28.964C79.3244 28.964 79.6091 28.922 79.8704 28.838C80.1411 28.7447 80.3744 28.5953 80.5704 28.39C80.7664 28.1753 80.9204 27.886 81.0324 27.522C81.1444 27.1487 81.2004 26.6867 81.2004 26.136V24.246C81.2004 23.6953 81.1444 23.238 81.0324 22.874C80.9204 22.51 80.7664 22.2253 80.5704 22.02C80.3744 21.8053 80.1411 21.656 79.8704 21.572C79.6091 21.4787 79.3244 21.432 79.0164 21.432C78.7177 21.432 78.4331 21.4787 78.1624 21.572C77.9011 21.656 77.6724 21.8053 77.4764 22.02C77.2804 22.2253 77.1264 22.51 77.0144 22.874C76.9024 23.238 76.8464 23.6953 76.8464 24.246V26.136C76.8464 26.6867 76.9024 27.1487 77.0144 27.522C77.1264 27.886 77.2804 28.1753 77.4764 28.39C77.6724 28.5953 77.9011 28.7447 78.1624 28.838C78.4331 28.922 78.7177 28.964 79.0164 28.964ZM90.8549 30.07C90.6216 30.07 90.3976 30.0233 90.1829 29.93C89.9683 29.8367 89.7956 29.6593 89.6649 29.398C89.5343 29.1367 89.4689 28.7587 89.4689 28.264C89.4689 27.7973 89.4176 27.4147 89.3149 27.116C89.2123 26.8173 89.0769 26.584 88.9089 26.416C88.7503 26.2387 88.5776 26.1127 88.3909 26.038C88.2043 25.9633 88.0223 25.926 87.8449 25.926H85.7029V30H84.2469V20.396H88.4189C88.9229 20.396 89.3756 20.4987 89.7769 20.704C90.1876 20.9093 90.5096 21.1987 90.7429 21.572C90.9856 21.9453 91.1069 22.3887 91.1069 22.902C91.1069 23.49 90.9529 24.0033 90.6449 24.442C90.3369 24.8713 89.9309 25.1373 89.4269 25.24V25.31C89.7629 25.4033 90.0383 25.5667 90.2529 25.8C90.4769 26.0333 90.6449 26.3227 90.7569 26.668C90.8689 27.004 90.9249 27.368 90.9249 27.76C90.9249 28.3947 90.9763 28.838 91.0789 29.09C91.1816 29.342 91.3683 29.5053 91.6389 29.58V29.944C91.5456 29.9907 91.4289 30.0233 91.2889 30.042C91.1583 30.0607 91.0136 30.07 90.8549 30.07ZM85.7029 24.75H88.0129C88.5449 24.75 88.9509 24.596 89.2309 24.288C89.5203 23.9707 89.6649 23.574 89.6649 23.098C89.6649 22.622 89.5249 22.2487 89.2449 21.978C88.9743 21.7073 88.5916 21.572 88.0969 21.572H85.7029V24.75ZM92.8235 30V20.396H99.0955L98.8995 21.586H94.2935V24.512H98.4655V25.674H94.2935V28.782H98.9835L99.1795 30H92.8235Z" fill="url(#paint4_linear_57_172)"/>
<g clip-path="url(#clip1_57_172)">
<path d="M106.463 25.2338H117.38" stroke="url(#paint5_linear_57_172)" stroke-width="0.935782" stroke-linecap="round" stroke-linejoin="round"/>
<path d="M111.921 19.7753L117.38 25.234L111.921 30.6927" stroke="url(#paint6_linear_57_172)" stroke-width="0.935782" stroke-linecap="round" stroke-linejoin="round"/>
</g>
<line x1="16" y1="36.5" x2="48.5773" y2="36.5" stroke="url(#paint7_linear_57_172)"/>
<defs>
<linearGradient id="paint0_linear_57_172" x1="-19.2329" y1="33.8925" x2="119.257" y2="74.4746" gradientUnits="userSpaceOnUse">
<stop offset="0.456183" stop-color="#00B4FD"/>
<stop offset="1" stop-color="#003ACE"/>
</linearGradient>
<linearGradient id="paint1_linear_57_172" x1="143.14" y1="56.0745" x2="128.857" y2="37.8314" gradientUnits="userSpaceOnUse">
<stop stop-color="#00B4FD"/>
<stop offset="1" stop-color="#003ACE"/>
</linearGradient>
<linearGradient id="paint2_linear_57_172" x1="116.074" y1="71.2054" x2="112.168" y2="69.3962" gradientUnits="userSpaceOnUse">
<stop stop-color="#00B4FD"/>
<stop offset="1" stop-color="#003ACE"/>
</linearGradient>
<linearGradient id="paint3_linear_57_172" x1="40.5411" y1="64.9455" x2="40.674" y2="68.9901" gradientUnits="userSpaceOnUse">
<stop stop-color="#00B4FD"/>
<stop offset="1" stop-color="#003ACE"/>
</linearGradient>
<linearGradient id="paint4_linear_57_172" x1="-44.9677" y1="-11.8345" x2="88.5375" y2="47.9317" gradientUnits="userSpaceOnUse">
<stop stop-color="#00B4FD"/>
<stop offset="0.98303" stop-color="#003ACE"/>
</linearGradient>
<linearGradient id="paint5_linear_57_172" x1="128.558" y1="27.7389" x2="121.563" y2="16.4622" gradientUnits="userSpaceOnUse">
<stop stop-color="#00B4FD"/>
<stop offset="1" stop-color="#003ACE"/>
</linearGradient>
<linearGradient id="paint6_linear_57_172" x1="116.074" y1="42.2054" x2="111.425" y2="40.5394" gradientUnits="userSpaceOnUse">
<stop stop-color="#00B4FD"/>
<stop offset="1" stop-color="#003ACE"/>
</linearGradient>
<linearGradient id="paint7_linear_57_172" x1="0.121297" y1="30.2769" x2="1.32042" y2="43.297" gradientUnits="userSpaceOnUse">
<stop stop-color="#00B4FD"/>
<stop offset="1" stop-color="#003ACE"/>
</linearGradient>
<clipPath id="clip0_57_172">
<rect width="13.5688" height="14.5046" fill="white" transform="translate(118.569 61.2523) rotate(-180)"/>
</clipPath>
<clipPath id="clip1_57_172">
<rect width="13.5688" height="14.5046" fill="white" transform="translate(118.569 32.2523) rotate(-180)"/>
</clipPath>
</defs>
</svg>
