<svg width="440" height="233" viewBox="0 0 440 233" fill="none" xmlns="http://www.w3.org/2000/svg">
<mask id="mask0_40_4548" style="mask-type:alpha" maskUnits="userSpaceOnUse" x="27" y="0" width="401" height="233">
<path d="M27.4022 232.073V-1.11221e-05H63.9384L169.826 145.468C171.179 146.822 172.645 148.739 174.224 151.219C176.028 153.7 177.72 156.181 179.298 158.662C180.877 161.143 182.005 163.173 182.681 164.751H184.373C184.373 161.368 184.373 158.098 184.373 154.941C184.373 151.783 184.373 148.626 184.373 145.468V-1.11221e-05H220.909V232.073H185.726L78.4853 84.913C76.681 82.2066 74.4257 78.8236 71.7193 74.764C69.0129 70.4789 66.9831 67.2087 65.6299 64.9533H63.9384C63.9384 68.1108 63.9384 71.381 63.9384 74.764C63.9384 77.9214 63.9384 81.3044 63.9384 84.913V232.073H27.4022ZM297.83 232.073C297.83 212 300.311 192.605 305.272 173.886C310.234 154.941 316.887 137.011 325.232 120.096C333.802 102.956 343.049 87.0555 352.972 72.3959C363.121 57.5108 373.158 44.2043 383.081 32.4767H262.647V-1.11221e-05H427.06V22.666C419.166 32.1384 410.934 42.6256 402.364 54.1278C393.794 65.4044 385.562 77.4704 377.668 90.3257C369.775 103.181 362.67 116.487 356.355 130.245C350.266 144.002 345.417 158.098 341.808 172.532C338.2 186.741 336.396 201.062 336.396 215.496V232.073H297.83Z" fill="#D9D9D9"/>
</mask>
<g mask="url(#mask0_40_4548)">
<rect x="-99.47" y="-9.98303" width="680.725" height="301.868" fill="#01B4FD"/>
<g filter="url(#filter0_f_40_4548)">
<circle cx="301.465" cy="179.507" r="125.72" fill="#013ACF"/>
</g>
<g filter="url(#filter1_f_40_4548)" style="mix-blend-mode:color-dodge">
<circle cx="131.073" cy="173.016" r="63.7764" fill="#74F1AE"/>
</g>
</g>
<defs>
<filter id="filter0_f_40_4548" x="75.7452" y="-46.2125" width="451.44" height="451.44" filterUnits="userSpaceOnUse" color-interpolation-filters="sRGB">
<feFlood flood-opacity="0" result="BackgroundImageFix"/>
<feBlend mode="normal" in="SourceGraphic" in2="BackgroundImageFix" result="shape"/>
<feGaussianBlur stdDeviation="50" result="effect1_foregroundBlur_40_4548"/>
</filter>
<filter id="filter1_f_40_4548" x="-32.7033" y="9.24005" width="327.553" height="327.553" filterUnits="userSpaceOnUse" color-interpolation-filters="sRGB">
<feFlood flood-opacity="0" result="BackgroundImageFix"/>
<feBlend mode="normal" in="SourceGraphic" in2="BackgroundImageFix" result="shape"/>
<feGaussianBlur stdDeviation="50" result="effect1_foregroundBlur_40_4548"/>
</filter>
</defs>
</svg>
