<svg width="268" height="146" viewBox="0 0 268 146" fill="none" xmlns="http://www.w3.org/2000/svg">
<rect x="0.5" y="0.5" width="267" height="145" rx="4.5" stroke="#9747FF" stroke-dasharray="10 5"/>
<rect x="16.5" y="16.5" width="225" height="48" rx="9.5" stroke="#000D12"/>
<path d="M83.19 46.075C82.94 46.075 82.7 46.025 82.47 45.925C82.24 45.825 82.055 45.635 81.915 45.355C81.775 45.075 81.705 44.67 81.705 44.14C81.705 43.64 81.65 43.23 81.54 42.91C81.43 42.59 81.285 42.34 81.105 42.16C80.935 41.97 80.75 41.835 80.55 41.755C80.35 41.675 80.155 41.635 79.965 41.635H77.67V46H76.11V35.71H80.58C81.12 35.71 81.605 35.82 82.035 36.04C82.475 36.26 82.82 36.57 83.07 36.97C83.33 37.37 83.46 37.845 83.46 38.395C83.46 39.025 83.295 39.575 82.965 40.045C82.635 40.505 82.2 40.79 81.66 40.9V40.975C82.02 41.075 82.315 41.25 82.545 41.5C82.785 41.75 82.965 42.06 83.085 42.43C83.205 42.79 83.265 43.18 83.265 43.6C83.265 44.28 83.32 44.755 83.43 45.025C83.54 45.295 83.74 45.47 84.03 45.55V45.94C83.93 45.99 83.805 46.025 83.655 46.045C83.515 46.065 83.36 46.075 83.19 46.075ZM77.67 40.375H80.145C80.715 40.375 81.15 40.21 81.45 39.88C81.76 39.54 81.915 39.115 81.915 38.605C81.915 38.095 81.765 37.695 81.465 37.405C81.175 37.115 80.765 36.97 80.235 36.97H77.67V40.375ZM85.2991 46V35.71H92.0191L91.8091 36.985H86.8741V40.12H91.3441V41.365H86.8741V44.695H91.8991L92.1091 46H85.2991ZM99.6183 48.175C99.1583 48.175 98.7283 48.09 98.3283 47.92C97.9383 47.76 97.6133 47.525 97.3533 47.215C97.0933 46.915 96.9233 46.545 96.8433 46.105C96.3633 46.045 95.9233 45.925 95.5233 45.745C95.1233 45.565 94.7733 45.3 94.4733 44.95C94.1733 44.59 93.9433 44.135 93.7833 43.585C93.6233 43.025 93.5433 42.345 93.5433 41.545V40.165C93.5433 39.305 93.6433 38.58 93.8433 37.99C94.0433 37.4 94.3183 36.93 94.6683 36.58C95.0183 36.22 95.4233 35.96 95.8833 35.8C96.3533 35.64 96.8533 35.56 97.3833 35.56H97.5933C98.1433 35.56 98.6483 35.64 99.1083 35.8C99.5783 35.96 99.9883 36.22 100.338 36.58C100.688 36.94 100.958 37.415 101.148 38.005C101.338 38.595 101.433 39.315 101.433 40.165V41.545C101.433 42.355 101.343 43.05 101.163 43.63C100.993 44.2 100.748 44.665 100.428 45.025C100.108 45.385 99.7333 45.655 99.3033 45.835C98.8833 46.005 98.4183 46.105 97.9083 46.135L98.2683 45.595C98.2683 46.075 98.4233 46.45 98.7333 46.72C99.0433 47 99.4683 47.14 100.008 47.14C100.268 47.14 100.548 47.1 100.848 47.02C101.148 46.95 101.408 46.85 101.628 46.72V47.695C101.408 47.825 101.118 47.935 100.758 48.025C100.398 48.125 100.018 48.175 99.6183 48.175ZM97.4883 44.89C97.8183 44.89 98.1233 44.845 98.4033 44.755C98.6933 44.655 98.9433 44.495 99.1533 44.275C99.3633 44.045 99.5283 43.735 99.6483 43.345C99.7683 42.945 99.8283 42.45 99.8283 41.86V39.835C99.8283 39.245 99.7683 38.755 99.6483 38.365C99.5283 37.975 99.3633 37.67 99.1533 37.45C98.9433 37.22 98.6933 37.06 98.4033 36.97C98.1233 36.87 97.8183 36.82 97.4883 36.82C97.1683 36.82 96.8633 36.87 96.5733 36.97C96.2933 37.06 96.0483 37.22 95.8383 37.45C95.6283 37.67 95.4633 37.975 95.3433 38.365C95.2233 38.755 95.1633 39.245 95.1633 39.835V41.86C95.1633 42.45 95.2233 42.945 95.3433 43.345C95.4633 43.735 95.6283 44.045 95.8383 44.275C96.0483 44.495 96.2933 44.655 96.5733 44.755C96.8633 44.845 97.1683 44.89 97.4883 44.89ZM106.347 46.15C105.277 46.15 104.442 45.85 103.842 45.25C103.242 44.64 102.942 43.795 102.942 42.715V35.71H104.487V42.715C104.487 43.395 104.662 43.93 105.012 44.32C105.362 44.7 105.852 44.89 106.482 44.89C107.122 44.89 107.617 44.7 107.967 44.32C108.317 43.93 108.492 43.395 108.492 42.715V35.71H110.022V42.715C110.022 43.795 109.722 44.64 109.122 45.25C108.522 45.85 107.687 46.15 106.617 46.15H106.347ZM112.282 46V35.71H119.002L118.792 36.985H113.857V40.12H118.327V41.365H113.857V44.695H118.882L119.092 46H112.282ZM124.471 46.15C123.951 46.15 123.451 46.095 122.971 45.985C122.501 45.875 122.086 45.7 121.726 45.46C121.366 45.21 121.081 44.89 120.871 44.5C120.661 44.11 120.556 43.635 120.556 43.075C120.556 43.035 120.556 42.99 120.556 42.94C120.556 42.88 120.561 42.825 120.571 42.775H122.056C122.046 42.835 122.041 42.89 122.041 42.94C122.041 42.99 122.041 43.045 122.041 43.105C122.041 43.515 122.141 43.85 122.341 44.11C122.541 44.37 122.821 44.56 123.181 44.68C123.541 44.8 123.961 44.86 124.441 44.86C124.921 44.86 125.336 44.81 125.686 44.71C126.036 44.6 126.306 44.42 126.496 44.17C126.696 43.92 126.796 43.59 126.796 43.18C126.796 42.81 126.686 42.515 126.466 42.295C126.246 42.075 125.956 41.9 125.596 41.77C125.246 41.63 124.856 41.505 124.426 41.395C124.006 41.285 123.581 41.165 123.151 41.035C122.731 40.905 122.341 40.735 121.981 40.525C121.631 40.315 121.346 40.035 121.126 39.685C120.906 39.325 120.796 38.87 120.796 38.32C120.796 37.69 120.966 37.17 121.306 36.76C121.646 36.35 122.096 36.05 122.656 35.86C123.216 35.66 123.831 35.56 124.501 35.56C125.171 35.56 125.781 35.66 126.331 35.86C126.881 36.05 127.316 36.355 127.636 36.775C127.966 37.185 128.131 37.73 128.131 38.41V38.605H126.676V38.365C126.676 38.025 126.581 37.74 126.391 37.51C126.211 37.27 125.956 37.09 125.626 36.97C125.306 36.85 124.931 36.79 124.501 36.79C124.101 36.79 123.741 36.84 123.421 36.94C123.101 37.04 122.846 37.195 122.656 37.405C122.476 37.615 122.386 37.89 122.386 38.23C122.386 38.58 122.491 38.86 122.701 39.07C122.921 39.28 123.206 39.45 123.556 39.58C123.916 39.7 124.311 39.81 124.741 39.91C125.171 40.01 125.596 40.125 126.016 40.255C126.446 40.385 126.836 40.555 127.186 40.765C127.546 40.975 127.836 41.26 128.056 41.62C128.286 41.97 128.401 42.42 128.401 42.97C128.401 43.74 128.226 44.36 127.876 44.83C127.536 45.29 127.066 45.625 126.466 45.835C125.876 46.045 125.211 46.15 124.471 46.15ZM132.685 46V37.015H129.49V35.71H137.44V37.015H134.245V46H132.685ZM148.063 46V35.71H151.648C152.218 35.71 152.748 35.785 153.238 35.935C153.728 36.085 154.158 36.33 154.528 36.67C154.898 37 155.188 37.44 155.398 37.99C155.608 38.53 155.713 39.19 155.713 39.97V41.74C155.713 42.5 155.608 43.155 155.398 43.705C155.188 44.245 154.898 44.685 154.528 45.025C154.158 45.355 153.728 45.6 153.238 45.76C152.748 45.92 152.218 46 151.648 46H148.063ZM149.653 44.725H151.543C152.033 44.725 152.468 44.645 152.848 44.485C153.228 44.315 153.528 44.025 153.748 43.615C153.978 43.205 154.093 42.625 154.093 41.875V39.82C154.093 39.09 153.978 38.52 153.748 38.11C153.528 37.69 153.228 37.395 152.848 37.225C152.468 37.055 152.033 36.97 151.543 36.97H149.653V44.725ZM157.252 46V35.71H163.972L163.762 36.985H158.827V40.12H163.297V41.365H158.827V44.695H163.852L164.062 46H157.252ZM165.841 46V35.71H167.971L169.396 43.81H169.456L170.941 35.71H173.041V46H171.631V37.54H171.556L170.041 46H168.646L167.176 37.54H167.101V46H165.841ZM178.346 46.15C177.796 46.15 177.286 46.07 176.816 45.91C176.356 45.75 175.951 45.495 175.601 45.145C175.251 44.785 174.976 44.31 174.776 43.72C174.586 43.13 174.491 42.405 174.491 41.545V40.165C174.491 39.305 174.591 38.58 174.791 37.99C174.991 37.4 175.266 36.93 175.616 36.58C175.966 36.22 176.371 35.96 176.831 35.8C177.301 35.64 177.801 35.56 178.331 35.56H178.541C179.091 35.56 179.596 35.64 180.056 35.8C180.526 35.96 180.936 36.22 181.286 36.58C181.636 36.94 181.906 37.415 182.096 38.005C182.286 38.595 182.381 39.315 182.381 40.165V41.545C182.381 42.395 182.286 43.115 182.096 43.705C181.906 44.295 181.636 44.77 181.286 45.13C180.936 45.48 180.531 45.74 180.071 45.91C179.611 46.07 179.106 46.15 178.556 46.15H178.346ZM178.436 44.89C178.766 44.89 179.071 44.845 179.351 44.755C179.641 44.655 179.891 44.495 180.101 44.275C180.311 44.045 180.476 43.735 180.596 43.345C180.716 42.945 180.776 42.45 180.776 41.86V39.835C180.776 39.245 180.716 38.755 180.596 38.365C180.476 37.975 180.311 37.67 180.101 37.45C179.891 37.22 179.641 37.06 179.351 36.97C179.071 36.87 178.766 36.82 178.436 36.82C178.116 36.82 177.811 36.87 177.521 36.97C177.241 37.06 176.996 37.22 176.786 37.45C176.576 37.67 176.411 37.975 176.291 38.365C176.171 38.755 176.111 39.245 176.111 39.835V41.86C176.111 42.45 176.171 42.945 176.291 43.345C176.411 43.735 176.576 44.045 176.786 44.275C176.996 44.495 177.241 44.655 177.521 44.755C177.811 44.845 178.116 44.89 178.436 44.89Z" fill="#000D12"/>
<g filter="url(#filter0_d_40_4586)">
<rect x="16" y="81" width="226" height="49" rx="10" fill="#E9F4F9" shape-rendering="crispEdges"/>
<rect x="16.5" y="81.5" width="225" height="48" rx="9.5" stroke="#E9F4F9" shape-rendering="crispEdges"/>
<path d="M83.19 111.075C82.94 111.075 82.7 111.025 82.47 110.925C82.24 110.825 82.055 110.635 81.915 110.355C81.775 110.075 81.705 109.67 81.705 109.14C81.705 108.64 81.65 108.23 81.54 107.91C81.43 107.59 81.285 107.34 81.105 107.16C80.935 106.97 80.75 106.835 80.55 106.755C80.35 106.675 80.155 106.635 79.965 106.635H77.67V111H76.11V100.71H80.58C81.12 100.71 81.605 100.82 82.035 101.04C82.475 101.26 82.82 101.57 83.07 101.97C83.33 102.37 83.46 102.845 83.46 103.395C83.46 104.025 83.295 104.575 82.965 105.045C82.635 105.505 82.2 105.79 81.66 105.9V105.975C82.02 106.075 82.315 106.25 82.545 106.5C82.785 106.75 82.965 107.06 83.085 107.43C83.205 107.79 83.265 108.18 83.265 108.6C83.265 109.28 83.32 109.755 83.43 110.025C83.54 110.295 83.74 110.47 84.03 110.55V110.94C83.93 110.99 83.805 111.025 83.655 111.045C83.515 111.065 83.36 111.075 83.19 111.075ZM77.67 105.375H80.145C80.715 105.375 81.15 105.21 81.45 104.88C81.76 104.54 81.915 104.115 81.915 103.605C81.915 103.095 81.765 102.695 81.465 102.405C81.175 102.115 80.765 101.97 80.235 101.97H77.67V105.375ZM85.2991 111V100.71H92.0191L91.8091 101.985H86.8741V105.12H91.3441V106.365H86.8741V109.695H91.8991L92.1091 111H85.2991ZM99.6183 113.175C99.1583 113.175 98.7283 113.09 98.3283 112.92C97.9383 112.76 97.6133 112.525 97.3533 112.215C97.0933 111.915 96.9233 111.545 96.8433 111.105C96.3633 111.045 95.9233 110.925 95.5233 110.745C95.1233 110.565 94.7733 110.3 94.4733 109.95C94.1733 109.59 93.9433 109.135 93.7833 108.585C93.6233 108.025 93.5433 107.345 93.5433 106.545V105.165C93.5433 104.305 93.6433 103.58 93.8433 102.99C94.0433 102.4 94.3183 101.93 94.6683 101.58C95.0183 101.22 95.4233 100.96 95.8833 100.8C96.3533 100.64 96.8533 100.56 97.3833 100.56H97.5933C98.1433 100.56 98.6483 100.64 99.1083 100.8C99.5783 100.96 99.9883 101.22 100.338 101.58C100.688 101.94 100.958 102.415 101.148 103.005C101.338 103.595 101.433 104.315 101.433 105.165V106.545C101.433 107.355 101.343 108.05 101.163 108.63C100.993 109.2 100.748 109.665 100.428 110.025C100.108 110.385 99.7333 110.655 99.3033 110.835C98.8833 111.005 98.4183 111.105 97.9083 111.135L98.2683 110.595C98.2683 111.075 98.4233 111.45 98.7333 111.72C99.0433 112 99.4683 112.14 100.008 112.14C100.268 112.14 100.548 112.1 100.848 112.02C101.148 111.95 101.408 111.85 101.628 111.72V112.695C101.408 112.825 101.118 112.935 100.758 113.025C100.398 113.125 100.018 113.175 99.6183 113.175ZM97.4883 109.89C97.8183 109.89 98.1233 109.845 98.4033 109.755C98.6933 109.655 98.9433 109.495 99.1533 109.275C99.3633 109.045 99.5283 108.735 99.6483 108.345C99.7683 107.945 99.8283 107.45 99.8283 106.86V104.835C99.8283 104.245 99.7683 103.755 99.6483 103.365C99.5283 102.975 99.3633 102.67 99.1533 102.45C98.9433 102.22 98.6933 102.06 98.4033 101.97C98.1233 101.87 97.8183 101.82 97.4883 101.82C97.1683 101.82 96.8633 101.87 96.5733 101.97C96.2933 102.06 96.0483 102.22 95.8383 102.45C95.6283 102.67 95.4633 102.975 95.3433 103.365C95.2233 103.755 95.1633 104.245 95.1633 104.835V106.86C95.1633 107.45 95.2233 107.945 95.3433 108.345C95.4633 108.735 95.6283 109.045 95.8383 109.275C96.0483 109.495 96.2933 109.655 96.5733 109.755C96.8633 109.845 97.1683 109.89 97.4883 109.89ZM106.347 111.15C105.277 111.15 104.442 110.85 103.842 110.25C103.242 109.64 102.942 108.795 102.942 107.715V100.71H104.487V107.715C104.487 108.395 104.662 108.93 105.012 109.32C105.362 109.7 105.852 109.89 106.482 109.89C107.122 109.89 107.617 109.7 107.967 109.32C108.317 108.93 108.492 108.395 108.492 107.715V100.71H110.022V107.715C110.022 108.795 109.722 109.64 109.122 110.25C108.522 110.85 107.687 111.15 106.617 111.15H106.347ZM112.282 111V100.71H119.002L118.792 101.985H113.857V105.12H118.327V106.365H113.857V109.695H118.882L119.092 111H112.282ZM124.471 111.15C123.951 111.15 123.451 111.095 122.971 110.985C122.501 110.875 122.086 110.7 121.726 110.46C121.366 110.21 121.081 109.89 120.871 109.5C120.661 109.11 120.556 108.635 120.556 108.075C120.556 108.035 120.556 107.99 120.556 107.94C120.556 107.88 120.561 107.825 120.571 107.775H122.056C122.046 107.835 122.041 107.89 122.041 107.94C122.041 107.99 122.041 108.045 122.041 108.105C122.041 108.515 122.141 108.85 122.341 109.11C122.541 109.37 122.821 109.56 123.181 109.68C123.541 109.8 123.961 109.86 124.441 109.86C124.921 109.86 125.336 109.81 125.686 109.71C126.036 109.6 126.306 109.42 126.496 109.17C126.696 108.92 126.796 108.59 126.796 108.18C126.796 107.81 126.686 107.515 126.466 107.295C126.246 107.075 125.956 106.9 125.596 106.77C125.246 106.63 124.856 106.505 124.426 106.395C124.006 106.285 123.581 106.165 123.151 106.035C122.731 105.905 122.341 105.735 121.981 105.525C121.631 105.315 121.346 105.035 121.126 104.685C120.906 104.325 120.796 103.87 120.796 103.32C120.796 102.69 120.966 102.17 121.306 101.76C121.646 101.35 122.096 101.05 122.656 100.86C123.216 100.66 123.831 100.56 124.501 100.56C125.171 100.56 125.781 100.66 126.331 100.86C126.881 101.05 127.316 101.355 127.636 101.775C127.966 102.185 128.131 102.73 128.131 103.41V103.605H126.676V103.365C126.676 103.025 126.581 102.74 126.391 102.51C126.211 102.27 125.956 102.09 125.626 101.97C125.306 101.85 124.931 101.79 124.501 101.79C124.101 101.79 123.741 101.84 123.421 101.94C123.101 102.04 122.846 102.195 122.656 102.405C122.476 102.615 122.386 102.89 122.386 103.23C122.386 103.58 122.491 103.86 122.701 104.07C122.921 104.28 123.206 104.45 123.556 104.58C123.916 104.7 124.311 104.81 124.741 104.91C125.171 105.01 125.596 105.125 126.016 105.255C126.446 105.385 126.836 105.555 127.186 105.765C127.546 105.975 127.836 106.26 128.056 106.62C128.286 106.97 128.401 107.42 128.401 107.97C128.401 108.74 128.226 109.36 127.876 109.83C127.536 110.29 127.066 110.625 126.466 110.835C125.876 111.045 125.211 111.15 124.471 111.15ZM132.685 111V102.015H129.49V100.71H137.44V102.015H134.245V111H132.685ZM148.063 111V100.71H151.648C152.218 100.71 152.748 100.785 153.238 100.935C153.728 101.085 154.158 101.33 154.528 101.67C154.898 102 155.188 102.44 155.398 102.99C155.608 103.53 155.713 104.19 155.713 104.97V106.74C155.713 107.5 155.608 108.155 155.398 108.705C155.188 109.245 154.898 109.685 154.528 110.025C154.158 110.355 153.728 110.6 153.238 110.76C152.748 110.92 152.218 111 151.648 111H148.063ZM149.653 109.725H151.543C152.033 109.725 152.468 109.645 152.848 109.485C153.228 109.315 153.528 109.025 153.748 108.615C153.978 108.205 154.093 107.625 154.093 106.875V104.82C154.093 104.09 153.978 103.52 153.748 103.11C153.528 102.69 153.228 102.395 152.848 102.225C152.468 102.055 152.033 101.97 151.543 101.97H149.653V109.725ZM157.252 111V100.71H163.972L163.762 101.985H158.827V105.12H163.297V106.365H158.827V109.695H163.852L164.062 111H157.252ZM165.841 111V100.71H167.971L169.396 108.81H169.456L170.941 100.71H173.041V111H171.631V102.54H171.556L170.041 111H168.646L167.176 102.54H167.101V111H165.841ZM178.346 111.15C177.796 111.15 177.286 111.07 176.816 110.91C176.356 110.75 175.951 110.495 175.601 110.145C175.251 109.785 174.976 109.31 174.776 108.72C174.586 108.13 174.491 107.405 174.491 106.545V105.165C174.491 104.305 174.591 103.58 174.791 102.99C174.991 102.4 175.266 101.93 175.616 101.58C175.966 101.22 176.371 100.96 176.831 100.8C177.301 100.64 177.801 100.56 178.331 100.56H178.541C179.091 100.56 179.596 100.64 180.056 100.8C180.526 100.96 180.936 101.22 181.286 101.58C181.636 101.94 181.906 102.415 182.096 103.005C182.286 103.595 182.381 104.315 182.381 105.165V106.545C182.381 107.395 182.286 108.115 182.096 108.705C181.906 109.295 181.636 109.77 181.286 110.13C180.936 110.48 180.531 110.74 180.071 110.91C179.611 111.07 179.106 111.15 178.556 111.15H178.346ZM178.436 109.89C178.766 109.89 179.071 109.845 179.351 109.755C179.641 109.655 179.891 109.495 180.101 109.275C180.311 109.045 180.476 108.735 180.596 108.345C180.716 107.945 180.776 107.45 180.776 106.86V104.835C180.776 104.245 180.716 103.755 180.596 103.365C180.476 102.975 180.311 102.67 180.101 102.45C179.891 102.22 179.641 102.06 179.351 101.97C179.071 101.87 178.766 101.82 178.436 101.82C178.116 101.82 177.811 101.87 177.521 101.97C177.241 102.06 176.996 102.22 176.786 102.45C176.576 102.67 176.411 102.975 176.291 103.365C176.171 103.755 176.111 104.245 176.111 104.835V106.86C176.111 107.45 176.171 107.945 176.291 108.345C176.411 108.735 176.576 109.045 176.786 109.275C176.996 109.495 177.241 109.655 177.521 109.755C177.811 109.845 178.116 109.89 178.436 109.89Z" fill="url(#paint0_linear_40_4586)"/>
</g>
<defs>
<filter id="filter0_d_40_4586" x="1" y="66" width="256" height="79" filterUnits="userSpaceOnUse" color-interpolation-filters="sRGB">
<feFlood flood-opacity="0" result="BackgroundImageFix"/>
<feColorMatrix in="SourceAlpha" type="matrix" values="0 0 0 0 0 0 0 0 0 0 0 0 0 0 0 0 0 0 127 0" result="hardAlpha"/>
<feOffset/>
<feGaussianBlur stdDeviation="7.5"/>
<feComposite in2="hardAlpha" operator="out"/>
<feColorMatrix type="matrix" values="0 0 0 0 0.00392157 0 0 0 0 0.27451 0 0 0 0 0.827451 0 0 0 0.1 0"/>
<feBlend mode="normal" in2="BackgroundImageFix" result="effect1_dropShadow_40_4586"/>
<feBlend mode="normal" in="SourceGraphic" in2="effect1_dropShadow_40_4586" result="shape"/>
</filter>
<linearGradient id="paint0_linear_40_4586" x1="-112.418" y1="51.5454" x2="112.976" y2="186.184" gradientUnits="userSpaceOnUse">
<stop stop-color="#00B4FD"/>
<stop offset="0.817853" stop-color="#003ACE"/>
</linearGradient>
</defs>
</svg>
