<svg width="190" height="49" viewBox="0 0 190 49" fill="none" xmlns="http://www.w3.org/2000/svg">
<rect x="0.5" y="0.5" width="189" height="48" rx="9.5" stroke="#E9F4F9"/>
<path d="M60.605 30V28.77H62.705V20.94H60.605V19.71H66.395V20.94H64.295V28.77H66.395V30H60.605ZM69.1041 30V19.71H70.6641L73.8141 25.935L74.3691 27.135H74.4291V19.71H75.8991V30H74.3241L71.0691 23.64L70.6191 22.605L70.5591 22.62V30H69.1041ZM81.4883 30.15C80.9683 30.15 80.4683 30.095 79.9883 29.985C79.5183 29.875 79.1033 29.7 78.7433 29.46C78.3833 29.21 78.0983 28.89 77.8883 28.5C77.6783 28.11 77.5733 27.635 77.5733 27.075C77.5733 27.035 77.5733 26.99 77.5733 26.94C77.5733 26.88 77.5783 26.825 77.5883 26.775H79.0733C79.0633 26.835 79.0583 26.89 79.0583 26.94C79.0583 26.99 79.0583 27.045 79.0583 27.105C79.0583 27.515 79.1583 27.85 79.3583 28.11C79.5583 28.37 79.8383 28.56 80.1983 28.68C80.5583 28.8 80.9783 28.86 81.4583 28.86C81.9383 28.86 82.3533 28.81 82.7033 28.71C83.0533 28.6 83.3233 28.42 83.5133 28.17C83.7133 27.92 83.8133 27.59 83.8133 27.18C83.8133 26.81 83.7033 26.515 83.4833 26.295C83.2633 26.075 82.9733 25.9 82.6133 25.77C82.2633 25.63 81.8733 25.505 81.4433 25.395C81.0233 25.285 80.5983 25.165 80.1683 25.035C79.7483 24.905 79.3583 24.735 78.9983 24.525C78.6483 24.315 78.3633 24.035 78.1433 23.685C77.9233 23.325 77.8133 22.87 77.8133 22.32C77.8133 21.69 77.9833 21.17 78.3233 20.76C78.6633 20.35 79.1133 20.05 79.6733 19.86C80.2333 19.66 80.8483 19.56 81.5183 19.56C82.1883 19.56 82.7983 19.66 83.3483 19.86C83.8983 20.05 84.3333 20.355 84.6533 20.775C84.9833 21.185 85.1483 21.73 85.1483 22.41V22.605H83.6933V22.365C83.6933 22.025 83.5983 21.74 83.4083 21.51C83.2283 21.27 82.9733 21.09 82.6433 20.97C82.3233 20.85 81.9483 20.79 81.5183 20.79C81.1183 20.79 80.7583 20.84 80.4383 20.94C80.1183 21.04 79.8633 21.195 79.6733 21.405C79.4933 21.615 79.4033 21.89 79.4033 22.23C79.4033 22.58 79.5083 22.86 79.7183 23.07C79.9383 23.28 80.2233 23.45 80.5733 23.58C80.9333 23.7 81.3283 23.81 81.7583 23.91C82.1883 24.01 82.6133 24.125 83.0333 24.255C83.4633 24.385 83.8533 24.555 84.2033 24.765C84.5633 24.975 84.8533 25.26 85.0733 25.62C85.3033 25.97 85.4183 26.42 85.4183 26.97C85.4183 27.74 85.2433 28.36 84.8933 28.83C84.5533 29.29 84.0833 29.625 83.4833 29.835C82.8933 30.045 82.2283 30.15 81.4883 30.15ZM87.5874 30V28.77H89.6874V20.94H87.5874V19.71H93.3774V20.94H91.2774V28.77H93.3774V30H87.5874ZM99.3266 30.15C98.7866 30.15 98.2866 30.07 97.8266 29.91C97.3666 29.75 96.9666 29.495 96.6266 29.145C96.2866 28.785 96.0166 28.31 95.8166 27.72C95.6266 27.13 95.5316 26.405 95.5316 25.545V24.165C95.5316 23.305 95.6266 22.58 95.8166 21.99C96.0066 21.4 96.2716 20.93 96.6116 20.58C96.9616 20.22 97.3666 19.96 97.8266 19.8C98.2966 19.64 98.8116 19.56 99.3716 19.56H99.5966C100.097 19.56 100.567 19.63 101.007 19.77C101.447 19.91 101.837 20.13 102.177 20.43C102.527 20.73 102.797 21.12 102.987 21.6C103.187 22.07 103.287 22.64 103.287 23.31H101.787C101.787 22.72 101.687 22.245 101.487 21.885C101.297 21.515 101.027 21.245 100.677 21.075C100.337 20.905 99.9316 20.82 99.4616 20.82C99.0216 20.82 98.6266 20.905 98.2766 21.075C97.9266 21.245 97.6516 21.55 97.4516 21.99C97.2516 22.43 97.1516 23.045 97.1516 23.835V25.86C97.1516 26.45 97.2116 26.945 97.3316 27.345C97.4516 27.735 97.6166 28.045 97.8266 28.275C98.0366 28.495 98.2816 28.655 98.5616 28.755C98.8516 28.845 99.1566 28.89 99.4766 28.89C99.8966 28.89 100.287 28.815 100.647 28.665C101.007 28.515 101.292 28.255 101.502 27.885C101.712 27.505 101.817 26.97 101.817 26.28V25.725H99.1766V24.585H103.287V28.095C103.287 28.505 103.297 28.865 103.317 29.175C103.337 29.485 103.362 29.76 103.392 30H102.462L102.162 28.71C101.892 29.19 101.507 29.55 101.007 29.79C100.507 30.03 99.9766 30.15 99.4166 30.15H99.3266ZM105.081 30V19.71H106.611V24.09H110.331V19.71H111.876V30H110.331V25.395H106.611V30H105.081ZM116.685 30V21.015H113.49V19.71H121.44V21.015H118.245V30H116.685ZM126.459 30.15C125.939 30.15 125.439 30.095 124.959 29.985C124.489 29.875 124.074 29.7 123.714 29.46C123.354 29.21 123.069 28.89 122.859 28.5C122.649 28.11 122.544 27.635 122.544 27.075C122.544 27.035 122.544 26.99 122.544 26.94C122.544 26.88 122.549 26.825 122.559 26.775H124.044C124.034 26.835 124.029 26.89 124.029 26.94C124.029 26.99 124.029 27.045 124.029 27.105C124.029 27.515 124.129 27.85 124.329 28.11C124.529 28.37 124.809 28.56 125.169 28.68C125.529 28.8 125.949 28.86 126.429 28.86C126.909 28.86 127.324 28.81 127.674 28.71C128.024 28.6 128.294 28.42 128.484 28.17C128.684 27.92 128.784 27.59 128.784 27.18C128.784 26.81 128.674 26.515 128.454 26.295C128.234 26.075 127.944 25.9 127.584 25.77C127.234 25.63 126.844 25.505 126.414 25.395C125.994 25.285 125.569 25.165 125.139 25.035C124.719 24.905 124.329 24.735 123.969 24.525C123.619 24.315 123.334 24.035 123.114 23.685C122.894 23.325 122.784 22.87 122.784 22.32C122.784 21.69 122.954 21.17 123.294 20.76C123.634 20.35 124.084 20.05 124.644 19.86C125.204 19.66 125.819 19.56 126.489 19.56C127.159 19.56 127.769 19.66 128.319 19.86C128.869 20.05 129.304 20.355 129.624 20.775C129.954 21.185 130.119 21.73 130.119 22.41V22.605H128.664V22.365C128.664 22.025 128.569 21.74 128.379 21.51C128.199 21.27 127.944 21.09 127.614 20.97C127.294 20.85 126.919 20.79 126.489 20.79C126.089 20.79 125.729 20.84 125.409 20.94C125.089 21.04 124.834 21.195 124.644 21.405C124.464 21.615 124.374 21.89 124.374 22.23C124.374 22.58 124.479 22.86 124.689 23.07C124.909 23.28 125.194 23.45 125.544 23.58C125.904 23.7 126.299 23.81 126.729 23.91C127.159 24.01 127.584 24.125 128.004 24.255C128.434 24.385 128.824 24.555 129.174 24.765C129.534 24.975 129.824 25.26 130.044 25.62C130.274 25.97 130.389 26.42 130.389 26.97C130.389 27.74 130.214 28.36 129.864 28.83C129.524 29.29 129.054 29.625 128.454 29.835C127.864 30.045 127.199 30.15 126.459 30.15Z" fill="#E9F4F9"/>
</svg>
