<svg width="268" height="146" viewBox="0 0 268 146" fill="none" xmlns="http://www.w3.org/2000/svg">
<rect x="0.5" y="0.5" width="267" height="145" rx="4.5" stroke="#9747FF" stroke-dasharray="10 5"/>
<rect x="16.5" y="16.5" width="207" height="48" rx="9.5" stroke="#000D12"/>
<path d="M76.56 46V35.71H78.135V44.68H82.8L83.01 46H76.56ZM85.2991 46V35.71H92.0191L91.8091 36.985H86.8741V40.12H91.3441V41.365H86.8741V44.695H91.8991L92.1091 46H85.2991ZM93.1833 46L96.5283 35.71H98.4333L101.793 46H100.173L97.4583 37.255H97.3983L94.7433 46H93.1833ZM94.8633 43.69V42.475H100.053V43.69H94.8633ZM110.172 46.075C109.922 46.075 109.682 46.025 109.452 45.925C109.222 45.825 109.037 45.635 108.897 45.355C108.757 45.075 108.687 44.67 108.687 44.14C108.687 43.64 108.632 43.23 108.522 42.91C108.412 42.59 108.267 42.34 108.087 42.16C107.917 41.97 107.732 41.835 107.532 41.755C107.332 41.675 107.137 41.635 106.947 41.635H104.652V46H103.092V35.71H107.562C108.102 35.71 108.587 35.82 109.017 36.04C109.457 36.26 109.802 36.57 110.052 36.97C110.312 37.37 110.442 37.845 110.442 38.395C110.442 39.025 110.277 39.575 109.947 40.045C109.617 40.505 109.182 40.79 108.642 40.9V40.975C109.002 41.075 109.297 41.25 109.527 41.5C109.767 41.75 109.947 42.06 110.067 42.43C110.187 42.79 110.247 43.18 110.247 43.6C110.247 44.28 110.302 44.755 110.412 45.025C110.522 45.295 110.722 45.47 111.012 45.55V45.94C110.912 45.99 110.787 46.025 110.637 46.045C110.497 46.065 110.342 46.075 110.172 46.075ZM104.652 40.375H107.127C107.697 40.375 108.132 40.21 108.432 39.88C108.742 39.54 108.897 39.115 108.897 38.605C108.897 38.095 108.747 37.695 108.447 37.405C108.157 37.115 107.747 36.97 107.217 36.97H104.652V40.375ZM112.087 46V35.71H113.647L116.797 41.935L117.352 43.135H117.412V35.71H118.882V46H117.307L114.052 39.64L113.602 38.605L113.542 38.62V46H112.087ZM129.865 46V35.71H131.995L133.42 43.81H133.48L134.965 35.71H137.065V46H135.655V37.54H135.58L134.065 46H132.67L131.2 37.54H131.125V46H129.865ZM142.369 46.15C141.819 46.15 141.309 46.07 140.839 45.91C140.379 45.75 139.974 45.495 139.624 45.145C139.274 44.785 138.999 44.31 138.799 43.72C138.609 43.13 138.514 42.405 138.514 41.545V40.165C138.514 39.305 138.614 38.58 138.814 37.99C139.014 37.4 139.289 36.93 139.639 36.58C139.989 36.22 140.394 35.96 140.854 35.8C141.324 35.64 141.824 35.56 142.354 35.56H142.564C143.114 35.56 143.619 35.64 144.079 35.8C144.549 35.96 144.959 36.22 145.309 36.58C145.659 36.94 145.929 37.415 146.119 38.005C146.309 38.595 146.404 39.315 146.404 40.165V41.545C146.404 42.395 146.309 43.115 146.119 43.705C145.929 44.295 145.659 44.77 145.309 45.13C144.959 45.48 144.554 45.74 144.094 45.91C143.634 46.07 143.129 46.15 142.579 46.15H142.369ZM142.459 44.89C142.789 44.89 143.094 44.845 143.374 44.755C143.664 44.655 143.914 44.495 144.124 44.275C144.334 44.045 144.499 43.735 144.619 43.345C144.739 42.945 144.799 42.45 144.799 41.86V39.835C144.799 39.245 144.739 38.755 144.619 38.365C144.499 37.975 144.334 37.67 144.124 37.45C143.914 37.22 143.664 37.06 143.374 36.97C143.094 36.87 142.789 36.82 142.459 36.82C142.139 36.82 141.834 36.87 141.544 36.97C141.264 37.06 141.019 37.22 140.809 37.45C140.599 37.67 140.434 37.975 140.314 38.365C140.194 38.755 140.134 39.245 140.134 39.835V41.86C140.134 42.45 140.194 42.945 140.314 43.345C140.434 43.735 140.599 44.045 140.809 44.275C141.019 44.495 141.264 44.655 141.544 44.755C141.834 44.845 142.139 44.89 142.459 44.89ZM155.143 46.075C154.893 46.075 154.653 46.025 154.423 45.925C154.193 45.825 154.008 45.635 153.868 45.355C153.728 45.075 153.658 44.67 153.658 44.14C153.658 43.64 153.603 43.23 153.493 42.91C153.383 42.59 153.238 42.34 153.058 42.16C152.888 41.97 152.703 41.835 152.503 41.755C152.303 41.675 152.108 41.635 151.918 41.635H149.623V46H148.063V35.71H152.533C153.073 35.71 153.558 35.82 153.988 36.04C154.428 36.26 154.773 36.57 155.023 36.97C155.283 37.37 155.413 37.845 155.413 38.395C155.413 39.025 155.248 39.575 154.918 40.045C154.588 40.505 154.153 40.79 153.613 40.9V40.975C153.973 41.075 154.268 41.25 154.498 41.5C154.738 41.75 154.918 42.06 155.038 42.43C155.158 42.79 155.218 43.18 155.218 43.6C155.218 44.28 155.273 44.755 155.383 45.025C155.493 45.295 155.693 45.47 155.983 45.55V45.94C155.883 45.99 155.758 46.025 155.608 46.045C155.468 46.065 155.313 46.075 155.143 46.075ZM149.623 40.375H152.098C152.668 40.375 153.103 40.21 153.403 39.88C153.713 39.54 153.868 39.115 153.868 38.605C153.868 38.095 153.718 37.695 153.418 37.405C153.128 37.115 152.718 36.97 152.188 36.97H149.623V40.375ZM157.252 46V35.71H163.972L163.762 36.985H158.827V40.12H163.297V41.365H158.827V44.695H163.852L164.062 46H157.252Z" fill="#000D12"/>
<g filter="url(#filter0_d_57_159)">
<rect x="16" y="81" width="208" height="49" rx="10" fill="#E9F4F9" shape-rendering="crispEdges"/>
<rect x="16.5" y="81.5" width="207" height="48" rx="9.5" stroke="#E9F4F9" shape-rendering="crispEdges"/>
<path d="M76.56 111V100.71H78.135V109.68H82.8L83.01 111H76.56ZM85.2991 111V100.71H92.0191L91.8091 101.985H86.8741V105.12H91.3441V106.365H86.8741V109.695H91.8991L92.1091 111H85.2991ZM93.1833 111L96.5283 100.71H98.4333L101.793 111H100.173L97.4583 102.255H97.3983L94.7433 111H93.1833ZM94.8633 108.69V107.475H100.053V108.69H94.8633ZM110.172 111.075C109.922 111.075 109.682 111.025 109.452 110.925C109.222 110.825 109.037 110.635 108.897 110.355C108.757 110.075 108.687 109.67 108.687 109.14C108.687 108.64 108.632 108.23 108.522 107.91C108.412 107.59 108.267 107.34 108.087 107.16C107.917 106.97 107.732 106.835 107.532 106.755C107.332 106.675 107.137 106.635 106.947 106.635H104.652V111H103.092V100.71H107.562C108.102 100.71 108.587 100.82 109.017 101.04C109.457 101.26 109.802 101.57 110.052 101.97C110.312 102.37 110.442 102.845 110.442 103.395C110.442 104.025 110.277 104.575 109.947 105.045C109.617 105.505 109.182 105.79 108.642 105.9V105.975C109.002 106.075 109.297 106.25 109.527 106.5C109.767 106.75 109.947 107.06 110.067 107.43C110.187 107.79 110.247 108.18 110.247 108.6C110.247 109.28 110.302 109.755 110.412 110.025C110.522 110.295 110.722 110.47 111.012 110.55V110.94C110.912 110.99 110.787 111.025 110.637 111.045C110.497 111.065 110.342 111.075 110.172 111.075ZM104.652 105.375H107.127C107.697 105.375 108.132 105.21 108.432 104.88C108.742 104.54 108.897 104.115 108.897 103.605C108.897 103.095 108.747 102.695 108.447 102.405C108.157 102.115 107.747 101.97 107.217 101.97H104.652V105.375ZM112.087 111V100.71H113.647L116.797 106.935L117.352 108.135H117.412V100.71H118.882V111H117.307L114.052 104.64L113.602 103.605L113.542 103.62V111H112.087ZM129.865 111V100.71H131.995L133.42 108.81H133.48L134.965 100.71H137.065V111H135.655V102.54H135.58L134.065 111H132.67L131.2 102.54H131.125V111H129.865ZM142.369 111.15C141.819 111.15 141.309 111.07 140.839 110.91C140.379 110.75 139.974 110.495 139.624 110.145C139.274 109.785 138.999 109.31 138.799 108.72C138.609 108.13 138.514 107.405 138.514 106.545V105.165C138.514 104.305 138.614 103.58 138.814 102.99C139.014 102.4 139.289 101.93 139.639 101.58C139.989 101.22 140.394 100.96 140.854 100.8C141.324 100.64 141.824 100.56 142.354 100.56H142.564C143.114 100.56 143.619 100.64 144.079 100.8C144.549 100.96 144.959 101.22 145.309 101.58C145.659 101.94 145.929 102.415 146.119 103.005C146.309 103.595 146.404 104.315 146.404 105.165V106.545C146.404 107.395 146.309 108.115 146.119 108.705C145.929 109.295 145.659 109.77 145.309 110.13C144.959 110.48 144.554 110.74 144.094 110.91C143.634 111.07 143.129 111.15 142.579 111.15H142.369ZM142.459 109.89C142.789 109.89 143.094 109.845 143.374 109.755C143.664 109.655 143.914 109.495 144.124 109.275C144.334 109.045 144.499 108.735 144.619 108.345C144.739 107.945 144.799 107.45 144.799 106.86V104.835C144.799 104.245 144.739 103.755 144.619 103.365C144.499 102.975 144.334 102.67 144.124 102.45C143.914 102.22 143.664 102.06 143.374 101.97C143.094 101.87 142.789 101.82 142.459 101.82C142.139 101.82 141.834 101.87 141.544 101.97C141.264 102.06 141.019 102.22 140.809 102.45C140.599 102.67 140.434 102.975 140.314 103.365C140.194 103.755 140.134 104.245 140.134 104.835V106.86C140.134 107.45 140.194 107.945 140.314 108.345C140.434 108.735 140.599 109.045 140.809 109.275C141.019 109.495 141.264 109.655 141.544 109.755C141.834 109.845 142.139 109.89 142.459 109.89ZM155.143 111.075C154.893 111.075 154.653 111.025 154.423 110.925C154.193 110.825 154.008 110.635 153.868 110.355C153.728 110.075 153.658 109.67 153.658 109.14C153.658 108.64 153.603 108.23 153.493 107.91C153.383 107.59 153.238 107.34 153.058 107.16C152.888 106.97 152.703 106.835 152.503 106.755C152.303 106.675 152.108 106.635 151.918 106.635H149.623V111H148.063V100.71H152.533C153.073 100.71 153.558 100.82 153.988 101.04C154.428 101.26 154.773 101.57 155.023 101.97C155.283 102.37 155.413 102.845 155.413 103.395C155.413 104.025 155.248 104.575 154.918 105.045C154.588 105.505 154.153 105.79 153.613 105.9V105.975C153.973 106.075 154.268 106.25 154.498 106.5C154.738 106.75 154.918 107.06 155.038 107.43C155.158 107.79 155.218 108.18 155.218 108.6C155.218 109.28 155.273 109.755 155.383 110.025C155.493 110.295 155.693 110.47 155.983 110.55V110.94C155.883 110.99 155.758 111.025 155.608 111.045C155.468 111.065 155.313 111.075 155.143 111.075ZM149.623 105.375H152.098C152.668 105.375 153.103 105.21 153.403 104.88C153.713 104.54 153.868 104.115 153.868 103.605C153.868 103.095 153.718 102.695 153.418 102.405C153.128 102.115 152.718 101.97 152.188 101.97H149.623V105.375ZM157.252 111V100.71H163.972L163.762 101.985H158.827V105.12H163.297V106.365H158.827V109.695H163.852L164.062 111H157.252Z" fill="url(#paint0_linear_57_159)"/>
</g>
<defs>
<filter id="filter0_d_57_159" x="1" y="66" width="238" height="79" filterUnits="userSpaceOnUse" color-interpolation-filters="sRGB">
<feFlood flood-opacity="0" result="BackgroundImageFix"/>
<feColorMatrix in="SourceAlpha" type="matrix" values="0 0 0 0 0 0 0 0 0 0 0 0 0 0 0 0 0 0 127 0" result="hardAlpha"/>
<feOffset/>
<feGaussianBlur stdDeviation="7.5"/>
<feComposite in2="hardAlpha" operator="out"/>
<feColorMatrix type="matrix" values="0 0 0 0 0.00392157 0 0 0 0 0.27451 0 0 0 0 0.827451 0 0 0 0.1 0"/>
<feBlend mode="normal" in2="BackgroundImageFix" result="effect1_dropShadow_57_159"/>
<feBlend mode="normal" in="SourceGraphic" in2="effect1_dropShadow_57_159" result="shape"/>
</filter>
<linearGradient id="paint0_linear_57_159" x1="-81.1813" y1="51.5454" x2="123.058" y2="153.214" gradientUnits="userSpaceOnUse">
<stop stop-color="#00B4FD"/>
<stop offset="0.817853" stop-color="#003ACE"/>
</linearGradient>
</defs>
</svg>
