<svg width="240" height="146" viewBox="0 0 240 146" fill="none" xmlns="http://www.w3.org/2000/svg">
<rect x="0.5" y="0.5" width="239" height="145" rx="4.5" stroke="#9747FF" stroke-dasharray="10 5"/>
<rect x="16.5" y="16.5" width="207" height="48" rx="9.5" stroke="#E9F4F9"/>
<path d="M79.41 46.15C78.86 46.15 78.35 46.07 77.88 45.91C77.42 45.75 77.015 45.495 76.665 45.145C76.315 44.785 76.04 44.31 75.84 43.72C75.65 43.13 75.555 42.405 75.555 41.545V40.165C75.555 39.305 75.655 38.58 75.855 37.99C76.055 37.4 76.33 36.93 76.68 36.58C77.03 36.22 77.435 35.96 77.895 35.8C78.365 35.64 78.865 35.56 79.395 35.56H79.605C80.385 35.56 81.05 35.71 81.6 36.01C82.16 36.31 82.585 36.765 82.875 37.375C83.165 37.975 83.31 38.73 83.31 39.64H81.795C81.795 38.98 81.72 38.445 81.57 38.035C81.43 37.615 81.19 37.31 80.85 37.12C80.51 36.92 80.055 36.82 79.485 36.82C79.155 36.82 78.85 36.87 78.57 36.97C78.3 37.06 78.06 37.22 77.85 37.45C77.64 37.67 77.475 37.975 77.355 38.365C77.235 38.755 77.175 39.245 77.175 39.835V41.86C77.175 42.45 77.235 42.945 77.355 43.345C77.475 43.735 77.64 44.045 77.85 44.275C78.06 44.495 78.3 44.655 78.57 44.755C78.85 44.845 79.155 44.89 79.485 44.89C80.345 44.89 80.95 44.67 81.3 44.23C81.66 43.78 81.84 43.065 81.84 42.085H83.31C83.31 42.965 83.165 43.705 82.875 44.305C82.585 44.905 82.165 45.365 81.615 45.685C81.065 45.995 80.4 46.15 79.62 46.15H79.41ZM88.4041 46.15C87.8541 46.15 87.3441 46.07 86.8741 45.91C86.4141 45.75 86.0091 45.495 85.6591 45.145C85.3091 44.785 85.0341 44.31 84.8341 43.72C84.6441 43.13 84.5491 42.405 84.5491 41.545V40.165C84.5491 39.305 84.6491 38.58 84.8491 37.99C85.0491 37.4 85.3241 36.93 85.6741 36.58C86.0241 36.22 86.4291 35.96 86.8891 35.8C87.3591 35.64 87.8591 35.56 88.3891 35.56H88.5991C89.1491 35.56 89.6541 35.64 90.1141 35.8C90.5841 35.96 90.9941 36.22 91.3441 36.58C91.6941 36.94 91.9641 37.415 92.1541 38.005C92.3441 38.595 92.4391 39.315 92.4391 40.165V41.545C92.4391 42.395 92.3441 43.115 92.1541 43.705C91.9641 44.295 91.6941 44.77 91.3441 45.13C90.9941 45.48 90.5891 45.74 90.1291 45.91C89.6691 46.07 89.1641 46.15 88.6141 46.15H88.4041ZM88.4941 44.89C88.8241 44.89 89.1291 44.845 89.4091 44.755C89.6991 44.655 89.9491 44.495 90.1591 44.275C90.3691 44.045 90.5341 43.735 90.6541 43.345C90.7741 42.945 90.8341 42.45 90.8341 41.86V39.835C90.8341 39.245 90.7741 38.755 90.6541 38.365C90.5341 37.975 90.3691 37.67 90.1591 37.45C89.9491 37.22 89.6991 37.06 89.4091 36.97C89.1291 36.87 88.8241 36.82 88.4941 36.82C88.1741 36.82 87.8691 36.87 87.5791 36.97C87.2991 37.06 87.0541 37.22 86.8441 37.45C86.6341 37.67 86.4691 37.975 86.3491 38.365C86.2291 38.755 86.1691 39.245 86.1691 39.835V41.86C86.1691 42.45 86.2291 42.945 86.3491 43.345C86.4691 43.735 86.6341 44.045 86.8441 44.275C87.0541 44.495 87.2991 44.655 87.5791 44.755C87.8691 44.845 88.1741 44.89 88.4941 44.89ZM94.0983 46V35.71H95.6583L98.8083 41.935L99.3633 43.135H99.4233V35.71H100.893V46H99.3183L96.0633 39.64L95.6133 38.605L95.5533 38.62V46H94.0983ZM105.702 46V37.015H102.507V35.71H110.457V37.015H107.262V46H105.702ZM111.172 46L114.517 35.71H116.422L119.782 46H118.162L115.447 37.255H115.387L112.732 46H111.172ZM112.852 43.69V42.475H118.042V43.69H112.852ZM124.381 46.15C123.831 46.15 123.321 46.07 122.851 45.91C122.391 45.75 121.986 45.495 121.636 45.145C121.286 44.785 121.011 44.31 120.811 43.72C120.621 43.13 120.526 42.405 120.526 41.545V40.165C120.526 39.305 120.626 38.58 120.826 37.99C121.026 37.4 121.301 36.93 121.651 36.58C122.001 36.22 122.406 35.96 122.866 35.8C123.336 35.64 123.836 35.56 124.366 35.56H124.576C125.356 35.56 126.021 35.71 126.571 36.01C127.131 36.31 127.556 36.765 127.846 37.375C128.136 37.975 128.281 38.73 128.281 39.64H126.766C126.766 38.98 126.691 38.445 126.541 38.035C126.401 37.615 126.161 37.31 125.821 37.12C125.481 36.92 125.026 36.82 124.456 36.82C124.126 36.82 123.821 36.87 123.541 36.97C123.271 37.06 123.031 37.22 122.821 37.45C122.611 37.67 122.446 37.975 122.326 38.365C122.206 38.755 122.146 39.245 122.146 39.835V41.86C122.146 42.45 122.206 42.945 122.326 43.345C122.446 43.735 122.611 44.045 122.821 44.275C123.031 44.495 123.271 44.655 123.541 44.755C123.821 44.845 124.126 44.89 124.456 44.89C125.316 44.89 125.921 44.67 126.271 44.23C126.631 43.78 126.811 43.065 126.811 42.085H128.281C128.281 42.965 128.136 43.705 127.846 44.305C127.556 44.905 127.136 45.365 126.586 45.685C126.036 45.995 125.371 46.15 124.591 46.15H124.381ZM132.685 46V37.015H129.49V35.71H137.44V37.015H134.245V46H132.685ZM151.318 46.15C150.248 46.15 149.413 45.85 148.813 45.25C148.213 44.64 147.913 43.795 147.913 42.715V35.71H149.458V42.715C149.458 43.395 149.633 43.93 149.983 44.32C150.333 44.7 150.823 44.89 151.453 44.89C152.093 44.89 152.588 44.7 152.938 44.32C153.288 43.93 153.463 43.395 153.463 42.715V35.71H154.993V42.715C154.993 43.795 154.693 44.64 154.093 45.25C153.493 45.85 152.658 46.15 151.588 46.15H151.318ZM160.447 46.15C159.927 46.15 159.427 46.095 158.947 45.985C158.477 45.875 158.062 45.7 157.702 45.46C157.342 45.21 157.057 44.89 156.847 44.5C156.637 44.11 156.532 43.635 156.532 43.075C156.532 43.035 156.532 42.99 156.532 42.94C156.532 42.88 156.537 42.825 156.547 42.775H158.032C158.022 42.835 158.017 42.89 158.017 42.94C158.017 42.99 158.017 43.045 158.017 43.105C158.017 43.515 158.117 43.85 158.317 44.11C158.517 44.37 158.797 44.56 159.157 44.68C159.517 44.8 159.937 44.86 160.417 44.86C160.897 44.86 161.312 44.81 161.662 44.71C162.012 44.6 162.282 44.42 162.472 44.17C162.672 43.92 162.772 43.59 162.772 43.18C162.772 42.81 162.662 42.515 162.442 42.295C162.222 42.075 161.932 41.9 161.572 41.77C161.222 41.63 160.832 41.505 160.402 41.395C159.982 41.285 159.557 41.165 159.127 41.035C158.707 40.905 158.317 40.735 157.957 40.525C157.607 40.315 157.322 40.035 157.102 39.685C156.882 39.325 156.772 38.87 156.772 38.32C156.772 37.69 156.942 37.17 157.282 36.76C157.622 36.35 158.072 36.05 158.632 35.86C159.192 35.66 159.807 35.56 160.477 35.56C161.147 35.56 161.757 35.66 162.307 35.86C162.857 36.05 163.292 36.355 163.612 36.775C163.942 37.185 164.107 37.73 164.107 38.41V38.605H162.652V38.365C162.652 38.025 162.557 37.74 162.367 37.51C162.187 37.27 161.932 37.09 161.602 36.97C161.282 36.85 160.907 36.79 160.477 36.79C160.077 36.79 159.717 36.84 159.397 36.94C159.077 37.04 158.822 37.195 158.632 37.405C158.452 37.615 158.362 37.89 158.362 38.23C158.362 38.58 158.467 38.86 158.677 39.07C158.897 39.28 159.182 39.45 159.532 39.58C159.892 39.7 160.287 39.81 160.717 39.91C161.147 40.01 161.572 40.125 161.992 40.255C162.422 40.385 162.812 40.555 163.162 40.765C163.522 40.975 163.812 41.26 164.032 41.62C164.262 41.97 164.377 42.42 164.377 42.97C164.377 43.74 164.202 44.36 163.852 44.83C163.512 45.29 163.042 45.625 162.442 45.835C161.852 46.045 161.187 46.15 160.447 46.15Z" fill="#E9F4F9"/>
<rect x="16.5" y="81.5" width="207" height="48" rx="9.5" fill="#E9F4F9"/>
<rect x="16.5" y="81.5" width="207" height="48" rx="9.5" stroke="#E9F4F9"/>
<path d="M79.41 111.15C78.86 111.15 78.35 111.07 77.88 110.91C77.42 110.75 77.015 110.495 76.665 110.145C76.315 109.785 76.04 109.31 75.84 108.72C75.65 108.13 75.555 107.405 75.555 106.545V105.165C75.555 104.305 75.655 103.58 75.855 102.99C76.055 102.4 76.33 101.93 76.68 101.58C77.03 101.22 77.435 100.96 77.895 100.8C78.365 100.64 78.865 100.56 79.395 100.56H79.605C80.385 100.56 81.05 100.71 81.6 101.01C82.16 101.31 82.585 101.765 82.875 102.375C83.165 102.975 83.31 103.73 83.31 104.64H81.795C81.795 103.98 81.72 103.445 81.57 103.035C81.43 102.615 81.19 102.31 80.85 102.12C80.51 101.92 80.055 101.82 79.485 101.82C79.155 101.82 78.85 101.87 78.57 101.97C78.3 102.06 78.06 102.22 77.85 102.45C77.64 102.67 77.475 102.975 77.355 103.365C77.235 103.755 77.175 104.245 77.175 104.835V106.86C77.175 107.45 77.235 107.945 77.355 108.345C77.475 108.735 77.64 109.045 77.85 109.275C78.06 109.495 78.3 109.655 78.57 109.755C78.85 109.845 79.155 109.89 79.485 109.89C80.345 109.89 80.95 109.67 81.3 109.23C81.66 108.78 81.84 108.065 81.84 107.085H83.31C83.31 107.965 83.165 108.705 82.875 109.305C82.585 109.905 82.165 110.365 81.615 110.685C81.065 110.995 80.4 111.15 79.62 111.15H79.41ZM88.4041 111.15C87.8541 111.15 87.3441 111.07 86.8741 110.91C86.4141 110.75 86.0091 110.495 85.6591 110.145C85.3091 109.785 85.0341 109.31 84.8341 108.72C84.6441 108.13 84.5491 107.405 84.5491 106.545V105.165C84.5491 104.305 84.6491 103.58 84.8491 102.99C85.0491 102.4 85.3241 101.93 85.6741 101.58C86.0241 101.22 86.4291 100.96 86.8891 100.8C87.3591 100.64 87.8591 100.56 88.3891 100.56H88.5991C89.1491 100.56 89.6541 100.64 90.1141 100.8C90.5841 100.96 90.9941 101.22 91.3441 101.58C91.6941 101.94 91.9641 102.415 92.1541 103.005C92.3441 103.595 92.4391 104.315 92.4391 105.165V106.545C92.4391 107.395 92.3441 108.115 92.1541 108.705C91.9641 109.295 91.6941 109.77 91.3441 110.13C90.9941 110.48 90.5891 110.74 90.1291 110.91C89.6691 111.07 89.1641 111.15 88.6141 111.15H88.4041ZM88.4941 109.89C88.8241 109.89 89.1291 109.845 89.4091 109.755C89.6991 109.655 89.9491 109.495 90.1591 109.275C90.3691 109.045 90.5341 108.735 90.6541 108.345C90.7741 107.945 90.8341 107.45 90.8341 106.86V104.835C90.8341 104.245 90.7741 103.755 90.6541 103.365C90.5341 102.975 90.3691 102.67 90.1591 102.45C89.9491 102.22 89.6991 102.06 89.4091 101.97C89.1291 101.87 88.8241 101.82 88.4941 101.82C88.1741 101.82 87.8691 101.87 87.5791 101.97C87.2991 102.06 87.0541 102.22 86.8441 102.45C86.6341 102.67 86.4691 102.975 86.3491 103.365C86.2291 103.755 86.1691 104.245 86.1691 104.835V106.86C86.1691 107.45 86.2291 107.945 86.3491 108.345C86.4691 108.735 86.6341 109.045 86.8441 109.275C87.0541 109.495 87.2991 109.655 87.5791 109.755C87.8691 109.845 88.1741 109.89 88.4941 109.89ZM94.0983 111V100.71H95.6583L98.8083 106.935L99.3633 108.135H99.4233V100.71H100.893V111H99.3183L96.0633 104.64L95.6133 103.605L95.5533 103.62V111H94.0983ZM105.702 111V102.015H102.507V100.71H110.457V102.015H107.262V111H105.702ZM111.172 111L114.517 100.71H116.422L119.782 111H118.162L115.447 102.255H115.387L112.732 111H111.172ZM112.852 108.69V107.475H118.042V108.69H112.852ZM124.381 111.15C123.831 111.15 123.321 111.07 122.851 110.91C122.391 110.75 121.986 110.495 121.636 110.145C121.286 109.785 121.011 109.31 120.811 108.72C120.621 108.13 120.526 107.405 120.526 106.545V105.165C120.526 104.305 120.626 103.58 120.826 102.99C121.026 102.4 121.301 101.93 121.651 101.58C122.001 101.22 122.406 100.96 122.866 100.8C123.336 100.64 123.836 100.56 124.366 100.56H124.576C125.356 100.56 126.021 100.71 126.571 101.01C127.131 101.31 127.556 101.765 127.846 102.375C128.136 102.975 128.281 103.73 128.281 104.64H126.766C126.766 103.98 126.691 103.445 126.541 103.035C126.401 102.615 126.161 102.31 125.821 102.12C125.481 101.92 125.026 101.82 124.456 101.82C124.126 101.82 123.821 101.87 123.541 101.97C123.271 102.06 123.031 102.22 122.821 102.45C122.611 102.67 122.446 102.975 122.326 103.365C122.206 103.755 122.146 104.245 122.146 104.835V106.86C122.146 107.45 122.206 107.945 122.326 108.345C122.446 108.735 122.611 109.045 122.821 109.275C123.031 109.495 123.271 109.655 123.541 109.755C123.821 109.845 124.126 109.89 124.456 109.89C125.316 109.89 125.921 109.67 126.271 109.23C126.631 108.78 126.811 108.065 126.811 107.085H128.281C128.281 107.965 128.136 108.705 127.846 109.305C127.556 109.905 127.136 110.365 126.586 110.685C126.036 110.995 125.371 111.15 124.591 111.15H124.381ZM132.685 111V102.015H129.49V100.71H137.44V102.015H134.245V111H132.685ZM151.318 111.15C150.248 111.15 149.413 110.85 148.813 110.25C148.213 109.64 147.913 108.795 147.913 107.715V100.71H149.458V107.715C149.458 108.395 149.633 108.93 149.983 109.32C150.333 109.7 150.823 109.89 151.453 109.89C152.093 109.89 152.588 109.7 152.938 109.32C153.288 108.93 153.463 108.395 153.463 107.715V100.71H154.993V107.715C154.993 108.795 154.693 109.64 154.093 110.25C153.493 110.85 152.658 111.15 151.588 111.15H151.318ZM160.447 111.15C159.927 111.15 159.427 111.095 158.947 110.985C158.477 110.875 158.062 110.7 157.702 110.46C157.342 110.21 157.057 109.89 156.847 109.5C156.637 109.11 156.532 108.635 156.532 108.075C156.532 108.035 156.532 107.99 156.532 107.94C156.532 107.88 156.537 107.825 156.547 107.775H158.032C158.022 107.835 158.017 107.89 158.017 107.94C158.017 107.99 158.017 108.045 158.017 108.105C158.017 108.515 158.117 108.85 158.317 109.11C158.517 109.37 158.797 109.56 159.157 109.68C159.517 109.8 159.937 109.86 160.417 109.86C160.897 109.86 161.312 109.81 161.662 109.71C162.012 109.6 162.282 109.42 162.472 109.17C162.672 108.92 162.772 108.59 162.772 108.18C162.772 107.81 162.662 107.515 162.442 107.295C162.222 107.075 161.932 106.9 161.572 106.77C161.222 106.63 160.832 106.505 160.402 106.395C159.982 106.285 159.557 106.165 159.127 106.035C158.707 105.905 158.317 105.735 157.957 105.525C157.607 105.315 157.322 105.035 157.102 104.685C156.882 104.325 156.772 103.87 156.772 103.32C156.772 102.69 156.942 102.17 157.282 101.76C157.622 101.35 158.072 101.05 158.632 100.86C159.192 100.66 159.807 100.56 160.477 100.56C161.147 100.56 161.757 100.66 162.307 100.86C162.857 101.05 163.292 101.355 163.612 101.775C163.942 102.185 164.107 102.73 164.107 103.41V103.605H162.652V103.365C162.652 103.025 162.557 102.74 162.367 102.51C162.187 102.27 161.932 102.09 161.602 101.97C161.282 101.85 160.907 101.79 160.477 101.79C160.077 101.79 159.717 101.84 159.397 101.94C159.077 102.04 158.822 102.195 158.632 102.405C158.452 102.615 158.362 102.89 158.362 103.23C158.362 103.58 158.467 103.86 158.677 104.07C158.897 104.28 159.182 104.45 159.532 104.58C159.892 104.7 160.287 104.81 160.717 104.91C161.147 105.01 161.572 105.125 161.992 105.255C162.422 105.385 162.812 105.555 163.162 105.765C163.522 105.975 163.812 106.26 164.032 106.62C164.262 106.97 164.377 107.42 164.377 107.97C164.377 108.74 164.202 109.36 163.852 109.83C163.512 110.29 163.042 110.625 162.442 110.835C161.852 111.045 161.187 111.15 160.447 111.15Z" fill="url(#paint0_linear_24_2846)"/>
<defs>
<linearGradient id="paint0_linear_24_2846" x1="-91.5859" y1="56.8916" x2="129.263" y2="145.018" gradientUnits="userSpaceOnUse">
<stop stop-color="#00B4FD"/>
<stop offset="0.855171" stop-color="#003ACE"/>
</linearGradient>
</defs>
</svg>
