<svg width="242" height="146" viewBox="0 0 242 146" fill="none" xmlns="http://www.w3.org/2000/svg">
<rect x="0.5" y="0.5" width="241" height="145" rx="4.5" stroke="#9747FF" stroke-dasharray="10 5"/>
<rect x="16" y="16" width="210" height="49" rx="10" fill="url(#paint0_linear_108_2648)"/>
<path d="M75.19 46.075C74.94 46.075 74.7 46.025 74.47 45.925C74.24 45.825 74.055 45.635 73.915 45.355C73.775 45.075 73.705 44.67 73.705 44.14C73.705 43.64 73.65 43.23 73.54 42.91C73.43 42.59 73.285 42.34 73.105 42.16C72.935 41.97 72.75 41.835 72.55 41.755C72.35 41.675 72.155 41.635 71.965 41.635H69.67V46H68.11V35.71H72.58C73.12 35.71 73.605 35.82 74.035 36.04C74.475 36.26 74.82 36.57 75.07 36.97C75.33 37.37 75.46 37.845 75.46 38.395C75.46 39.025 75.295 39.575 74.965 40.045C74.635 40.505 74.2 40.79 73.66 40.9V40.975C74.02 41.075 74.315 41.25 74.545 41.5C74.785 41.75 74.965 42.06 75.085 42.43C75.205 42.79 75.265 43.18 75.265 43.6C75.265 44.28 75.32 44.755 75.43 45.025C75.54 45.295 75.74 45.47 76.03 45.55V45.94C75.93 45.99 75.805 46.025 75.655 46.045C75.515 46.065 75.36 46.075 75.19 46.075ZM69.67 40.375H72.145C72.715 40.375 73.15 40.21 73.45 39.88C73.76 39.54 73.915 39.115 73.915 38.605C73.915 38.095 73.765 37.695 73.465 37.405C73.175 37.115 72.765 36.97 72.235 36.97H69.67V40.375ZM77.2991 46V35.71H84.0191L83.8091 36.985H78.8741V40.12H83.3441V41.365H78.8741V44.695H83.8991L84.1091 46H77.2991ZM91.6183 48.175C91.1583 48.175 90.7283 48.09 90.3283 47.92C89.9383 47.76 89.6133 47.525 89.3533 47.215C89.0933 46.915 88.9233 46.545 88.8433 46.105C88.3633 46.045 87.9233 45.925 87.5233 45.745C87.1233 45.565 86.7733 45.3 86.4733 44.95C86.1733 44.59 85.9433 44.135 85.7833 43.585C85.6233 43.025 85.5433 42.345 85.5433 41.545V40.165C85.5433 39.305 85.6433 38.58 85.8433 37.99C86.0433 37.4 86.3183 36.93 86.6683 36.58C87.0183 36.22 87.4233 35.96 87.8833 35.8C88.3533 35.64 88.8533 35.56 89.3833 35.56H89.5933C90.1433 35.56 90.6483 35.64 91.1083 35.8C91.5783 35.96 91.9883 36.22 92.3383 36.58C92.6883 36.94 92.9583 37.415 93.1483 38.005C93.3383 38.595 93.4333 39.315 93.4333 40.165V41.545C93.4333 42.355 93.3433 43.05 93.1633 43.63C92.9933 44.2 92.7483 44.665 92.4283 45.025C92.1083 45.385 91.7333 45.655 91.3033 45.835C90.8833 46.005 90.4183 46.105 89.9083 46.135L90.2683 45.595C90.2683 46.075 90.4233 46.45 90.7333 46.72C91.0433 47 91.4683 47.14 92.0083 47.14C92.2683 47.14 92.5483 47.1 92.8483 47.02C93.1483 46.95 93.4083 46.85 93.6283 46.72V47.695C93.4083 47.825 93.1183 47.935 92.7583 48.025C92.3983 48.125 92.0183 48.175 91.6183 48.175ZM89.4883 44.89C89.8183 44.89 90.1233 44.845 90.4033 44.755C90.6933 44.655 90.9433 44.495 91.1533 44.275C91.3633 44.045 91.5283 43.735 91.6483 43.345C91.7683 42.945 91.8283 42.45 91.8283 41.86V39.835C91.8283 39.245 91.7683 38.755 91.6483 38.365C91.5283 37.975 91.3633 37.67 91.1533 37.45C90.9433 37.22 90.6933 37.06 90.4033 36.97C90.1233 36.87 89.8183 36.82 89.4883 36.82C89.1683 36.82 88.8633 36.87 88.5733 36.97C88.2933 37.06 88.0483 37.22 87.8383 37.45C87.6283 37.67 87.4633 37.975 87.3433 38.365C87.2233 38.755 87.1633 39.245 87.1633 39.835V41.86C87.1633 42.45 87.2233 42.945 87.3433 43.345C87.4633 43.735 87.6283 44.045 87.8383 44.275C88.0483 44.495 88.2933 44.655 88.5733 44.755C88.8633 44.845 89.1683 44.89 89.4883 44.89ZM98.3474 46.15C97.2774 46.15 96.4424 45.85 95.8424 45.25C95.2424 44.64 94.9424 43.795 94.9424 42.715V35.71H96.4874V42.715C96.4874 43.395 96.6624 43.93 97.0124 44.32C97.3624 44.7 97.8524 44.89 98.4824 44.89C99.1224 44.89 99.6174 44.7 99.9674 44.32C100.317 43.93 100.492 43.395 100.492 42.715V35.71H102.022V42.715C102.022 43.795 101.722 44.64 101.122 45.25C100.522 45.85 99.6874 46.15 98.6174 46.15H98.3474ZM104.282 46V35.71H111.002L110.792 36.985H105.857V40.12H110.327V41.365H105.857V44.695H110.882L111.092 46H104.282ZM116.471 46.15C115.951 46.15 115.451 46.095 114.971 45.985C114.501 45.875 114.086 45.7 113.726 45.46C113.366 45.21 113.081 44.89 112.871 44.5C112.661 44.11 112.556 43.635 112.556 43.075C112.556 43.035 112.556 42.99 112.556 42.94C112.556 42.88 112.561 42.825 112.571 42.775H114.056C114.046 42.835 114.041 42.89 114.041 42.94C114.041 42.99 114.041 43.045 114.041 43.105C114.041 43.515 114.141 43.85 114.341 44.11C114.541 44.37 114.821 44.56 115.181 44.68C115.541 44.8 115.961 44.86 116.441 44.86C116.921 44.86 117.336 44.81 117.686 44.71C118.036 44.6 118.306 44.42 118.496 44.17C118.696 43.92 118.796 43.59 118.796 43.18C118.796 42.81 118.686 42.515 118.466 42.295C118.246 42.075 117.956 41.9 117.596 41.77C117.246 41.63 116.856 41.505 116.426 41.395C116.006 41.285 115.581 41.165 115.151 41.035C114.731 40.905 114.341 40.735 113.981 40.525C113.631 40.315 113.346 40.035 113.126 39.685C112.906 39.325 112.796 38.87 112.796 38.32C112.796 37.69 112.966 37.17 113.306 36.76C113.646 36.35 114.096 36.05 114.656 35.86C115.216 35.66 115.831 35.56 116.501 35.56C117.171 35.56 117.781 35.66 118.331 35.86C118.881 36.05 119.316 36.355 119.636 36.775C119.966 37.185 120.131 37.73 120.131 38.41V38.605H118.676V38.365C118.676 38.025 118.581 37.74 118.391 37.51C118.211 37.27 117.956 37.09 117.626 36.97C117.306 36.85 116.931 36.79 116.501 36.79C116.101 36.79 115.741 36.84 115.421 36.94C115.101 37.04 114.846 37.195 114.656 37.405C114.476 37.615 114.386 37.89 114.386 38.23C114.386 38.58 114.491 38.86 114.701 39.07C114.921 39.28 115.206 39.45 115.556 39.58C115.916 39.7 116.311 39.81 116.741 39.91C117.171 40.01 117.596 40.125 118.016 40.255C118.446 40.385 118.836 40.555 119.186 40.765C119.546 40.975 119.836 41.26 120.056 41.62C120.286 41.97 120.401 42.42 120.401 42.97C120.401 43.74 120.226 44.36 119.876 44.83C119.536 45.29 119.066 45.625 118.466 45.835C117.876 46.045 117.211 46.15 116.471 46.15ZM124.685 46V37.015H121.49V35.71H129.44V37.015H126.245V46H124.685ZM140.063 46V35.71H143.648C144.218 35.71 144.748 35.785 145.238 35.935C145.728 36.085 146.158 36.33 146.528 36.67C146.898 37 147.188 37.44 147.398 37.99C147.608 38.53 147.713 39.19 147.713 39.97V41.74C147.713 42.5 147.608 43.155 147.398 43.705C147.188 44.245 146.898 44.685 146.528 45.025C146.158 45.355 145.728 45.6 145.238 45.76C144.748 45.92 144.218 46 143.648 46H140.063ZM141.653 44.725H143.543C144.033 44.725 144.468 44.645 144.848 44.485C145.228 44.315 145.528 44.025 145.748 43.615C145.978 43.205 146.093 42.625 146.093 41.875V39.82C146.093 39.09 145.978 38.52 145.748 38.11C145.528 37.69 145.228 37.395 144.848 37.225C144.468 37.055 144.033 36.97 143.543 36.97H141.653V44.725ZM149.252 46V35.71H155.972L155.762 36.985H150.827V40.12H155.297V41.365H150.827V44.695H155.852L156.062 46H149.252ZM157.841 46V35.71H159.971L161.396 43.81H161.456L162.941 35.71H165.041V46H163.631V37.54H163.556L162.041 46H160.646L159.176 37.54H159.101V46H157.841ZM170.346 46.15C169.796 46.15 169.286 46.07 168.816 45.91C168.356 45.75 167.951 45.495 167.601 45.145C167.251 44.785 166.976 44.31 166.776 43.72C166.586 43.13 166.491 42.405 166.491 41.545V40.165C166.491 39.305 166.591 38.58 166.791 37.99C166.991 37.4 167.266 36.93 167.616 36.58C167.966 36.22 168.371 35.96 168.831 35.8C169.301 35.64 169.801 35.56 170.331 35.56H170.541C171.091 35.56 171.596 35.64 172.056 35.8C172.526 35.96 172.936 36.22 173.286 36.58C173.636 36.94 173.906 37.415 174.096 38.005C174.286 38.595 174.381 39.315 174.381 40.165V41.545C174.381 42.395 174.286 43.115 174.096 43.705C173.906 44.295 173.636 44.77 173.286 45.13C172.936 45.48 172.531 45.74 172.071 45.91C171.611 46.07 171.106 46.15 170.556 46.15H170.346ZM170.436 44.89C170.766 44.89 171.071 44.845 171.351 44.755C171.641 44.655 171.891 44.495 172.101 44.275C172.311 44.045 172.476 43.735 172.596 43.345C172.716 42.945 172.776 42.45 172.776 41.86V39.835C172.776 39.245 172.716 38.755 172.596 38.365C172.476 37.975 172.311 37.67 172.101 37.45C171.891 37.22 171.641 37.06 171.351 36.97C171.071 36.87 170.766 36.82 170.436 36.82C170.116 36.82 169.811 36.87 169.521 36.97C169.241 37.06 168.996 37.22 168.786 37.45C168.576 37.67 168.411 37.975 168.291 38.365C168.171 38.755 168.111 39.245 168.111 39.835V41.86C168.111 42.45 168.171 42.945 168.291 43.345C168.411 43.735 168.576 44.045 168.786 44.275C168.996 44.495 169.241 44.655 169.521 44.755C169.811 44.845 170.116 44.89 170.436 44.89Z" fill="white"/>
<g filter="url(#filter0_d_108_2648)">
<rect x="16" y="81" width="210" height="49" rx="10" fill="#E9F4F9" shape-rendering="crispEdges"/>
<path d="M75.19 111.075C74.94 111.075 74.7 111.025 74.47 110.925C74.24 110.825 74.055 110.635 73.915 110.355C73.775 110.075 73.705 109.67 73.705 109.14C73.705 108.64 73.65 108.23 73.54 107.91C73.43 107.59 73.285 107.34 73.105 107.16C72.935 106.97 72.75 106.835 72.55 106.755C72.35 106.675 72.155 106.635 71.965 106.635H69.67V111H68.11V100.71H72.58C73.12 100.71 73.605 100.82 74.035 101.04C74.475 101.26 74.82 101.57 75.07 101.97C75.33 102.37 75.46 102.845 75.46 103.395C75.46 104.025 75.295 104.575 74.965 105.045C74.635 105.505 74.2 105.79 73.66 105.9V105.975C74.02 106.075 74.315 106.25 74.545 106.5C74.785 106.75 74.965 107.06 75.085 107.43C75.205 107.79 75.265 108.18 75.265 108.6C75.265 109.28 75.32 109.755 75.43 110.025C75.54 110.295 75.74 110.47 76.03 110.55V110.94C75.93 110.99 75.805 111.025 75.655 111.045C75.515 111.065 75.36 111.075 75.19 111.075ZM69.67 105.375H72.145C72.715 105.375 73.15 105.21 73.45 104.88C73.76 104.54 73.915 104.115 73.915 103.605C73.915 103.095 73.765 102.695 73.465 102.405C73.175 102.115 72.765 101.97 72.235 101.97H69.67V105.375ZM77.2991 111V100.71H84.0191L83.8091 101.985H78.8741V105.12H83.3441V106.365H78.8741V109.695H83.8991L84.1091 111H77.2991ZM91.6183 113.175C91.1583 113.175 90.7283 113.09 90.3283 112.92C89.9383 112.76 89.6133 112.525 89.3533 112.215C89.0933 111.915 88.9233 111.545 88.8433 111.105C88.3633 111.045 87.9233 110.925 87.5233 110.745C87.1233 110.565 86.7733 110.3 86.4733 109.95C86.1733 109.59 85.9433 109.135 85.7833 108.585C85.6233 108.025 85.5433 107.345 85.5433 106.545V105.165C85.5433 104.305 85.6433 103.58 85.8433 102.99C86.0433 102.4 86.3183 101.93 86.6683 101.58C87.0183 101.22 87.4233 100.96 87.8833 100.8C88.3533 100.64 88.8533 100.56 89.3833 100.56H89.5933C90.1433 100.56 90.6483 100.64 91.1083 100.8C91.5783 100.96 91.9883 101.22 92.3383 101.58C92.6883 101.94 92.9583 102.415 93.1483 103.005C93.3383 103.595 93.4333 104.315 93.4333 105.165V106.545C93.4333 107.355 93.3433 108.05 93.1633 108.63C92.9933 109.2 92.7483 109.665 92.4283 110.025C92.1083 110.385 91.7333 110.655 91.3033 110.835C90.8833 111.005 90.4183 111.105 89.9083 111.135L90.2683 110.595C90.2683 111.075 90.4233 111.45 90.7333 111.72C91.0433 112 91.4683 112.14 92.0083 112.14C92.2683 112.14 92.5483 112.1 92.8483 112.02C93.1483 111.95 93.4083 111.85 93.6283 111.72V112.695C93.4083 112.825 93.1183 112.935 92.7583 113.025C92.3983 113.125 92.0183 113.175 91.6183 113.175ZM89.4883 109.89C89.8183 109.89 90.1233 109.845 90.4033 109.755C90.6933 109.655 90.9433 109.495 91.1533 109.275C91.3633 109.045 91.5283 108.735 91.6483 108.345C91.7683 107.945 91.8283 107.45 91.8283 106.86V104.835C91.8283 104.245 91.7683 103.755 91.6483 103.365C91.5283 102.975 91.3633 102.67 91.1533 102.45C90.9433 102.22 90.6933 102.06 90.4033 101.97C90.1233 101.87 89.8183 101.82 89.4883 101.82C89.1683 101.82 88.8633 101.87 88.5733 101.97C88.2933 102.06 88.0483 102.22 87.8383 102.45C87.6283 102.67 87.4633 102.975 87.3433 103.365C87.2233 103.755 87.1633 104.245 87.1633 104.835V106.86C87.1633 107.45 87.2233 107.945 87.3433 108.345C87.4633 108.735 87.6283 109.045 87.8383 109.275C88.0483 109.495 88.2933 109.655 88.5733 109.755C88.8633 109.845 89.1683 109.89 89.4883 109.89ZM98.3474 111.15C97.2774 111.15 96.4424 110.85 95.8424 110.25C95.2424 109.64 94.9424 108.795 94.9424 107.715V100.71H96.4874V107.715C96.4874 108.395 96.6624 108.93 97.0124 109.32C97.3624 109.7 97.8524 109.89 98.4824 109.89C99.1224 109.89 99.6174 109.7 99.9674 109.32C100.317 108.93 100.492 108.395 100.492 107.715V100.71H102.022V107.715C102.022 108.795 101.722 109.64 101.122 110.25C100.522 110.85 99.6874 111.15 98.6174 111.15H98.3474ZM104.282 111V100.71H111.002L110.792 101.985H105.857V105.12H110.327V106.365H105.857V109.695H110.882L111.092 111H104.282ZM116.471 111.15C115.951 111.15 115.451 111.095 114.971 110.985C114.501 110.875 114.086 110.7 113.726 110.46C113.366 110.21 113.081 109.89 112.871 109.5C112.661 109.11 112.556 108.635 112.556 108.075C112.556 108.035 112.556 107.99 112.556 107.94C112.556 107.88 112.561 107.825 112.571 107.775H114.056C114.046 107.835 114.041 107.89 114.041 107.94C114.041 107.99 114.041 108.045 114.041 108.105C114.041 108.515 114.141 108.85 114.341 109.11C114.541 109.37 114.821 109.56 115.181 109.68C115.541 109.8 115.961 109.86 116.441 109.86C116.921 109.86 117.336 109.81 117.686 109.71C118.036 109.6 118.306 109.42 118.496 109.17C118.696 108.92 118.796 108.59 118.796 108.18C118.796 107.81 118.686 107.515 118.466 107.295C118.246 107.075 117.956 106.9 117.596 106.77C117.246 106.63 116.856 106.505 116.426 106.395C116.006 106.285 115.581 106.165 115.151 106.035C114.731 105.905 114.341 105.735 113.981 105.525C113.631 105.315 113.346 105.035 113.126 104.685C112.906 104.325 112.796 103.87 112.796 103.32C112.796 102.69 112.966 102.17 113.306 101.76C113.646 101.35 114.096 101.05 114.656 100.86C115.216 100.66 115.831 100.56 116.501 100.56C117.171 100.56 117.781 100.66 118.331 100.86C118.881 101.05 119.316 101.355 119.636 101.775C119.966 102.185 120.131 102.73 120.131 103.41V103.605H118.676V103.365C118.676 103.025 118.581 102.74 118.391 102.51C118.211 102.27 117.956 102.09 117.626 101.97C117.306 101.85 116.931 101.79 116.501 101.79C116.101 101.79 115.741 101.84 115.421 101.94C115.101 102.04 114.846 102.195 114.656 102.405C114.476 102.615 114.386 102.89 114.386 103.23C114.386 103.58 114.491 103.86 114.701 104.07C114.921 104.28 115.206 104.45 115.556 104.58C115.916 104.7 116.311 104.81 116.741 104.91C117.171 105.01 117.596 105.125 118.016 105.255C118.446 105.385 118.836 105.555 119.186 105.765C119.546 105.975 119.836 106.26 120.056 106.62C120.286 106.97 120.401 107.42 120.401 107.97C120.401 108.74 120.226 109.36 119.876 109.83C119.536 110.29 119.066 110.625 118.466 110.835C117.876 111.045 117.211 111.15 116.471 111.15ZM124.685 111V102.015H121.49V100.71H129.44V102.015H126.245V111H124.685ZM140.063 111V100.71H143.648C144.218 100.71 144.748 100.785 145.238 100.935C145.728 101.085 146.158 101.33 146.528 101.67C146.898 102 147.188 102.44 147.398 102.99C147.608 103.53 147.713 104.19 147.713 104.97V106.74C147.713 107.5 147.608 108.155 147.398 108.705C147.188 109.245 146.898 109.685 146.528 110.025C146.158 110.355 145.728 110.6 145.238 110.76C144.748 110.92 144.218 111 143.648 111H140.063ZM141.653 109.725H143.543C144.033 109.725 144.468 109.645 144.848 109.485C145.228 109.315 145.528 109.025 145.748 108.615C145.978 108.205 146.093 107.625 146.093 106.875V104.82C146.093 104.09 145.978 103.52 145.748 103.11C145.528 102.69 145.228 102.395 144.848 102.225C144.468 102.055 144.033 101.97 143.543 101.97H141.653V109.725ZM149.252 111V100.71H155.972L155.762 101.985H150.827V105.12H155.297V106.365H150.827V109.695H155.852L156.062 111H149.252ZM157.841 111V100.71H159.971L161.396 108.81H161.456L162.941 100.71H165.041V111H163.631V102.54H163.556L162.041 111H160.646L159.176 102.54H159.101V111H157.841ZM170.346 111.15C169.796 111.15 169.286 111.07 168.816 110.91C168.356 110.75 167.951 110.495 167.601 110.145C167.251 109.785 166.976 109.31 166.776 108.72C166.586 108.13 166.491 107.405 166.491 106.545V105.165C166.491 104.305 166.591 103.58 166.791 102.99C166.991 102.4 167.266 101.93 167.616 101.58C167.966 101.22 168.371 100.96 168.831 100.8C169.301 100.64 169.801 100.56 170.331 100.56H170.541C171.091 100.56 171.596 100.64 172.056 100.8C172.526 100.96 172.936 101.22 173.286 101.58C173.636 101.94 173.906 102.415 174.096 103.005C174.286 103.595 174.381 104.315 174.381 105.165V106.545C174.381 107.395 174.286 108.115 174.096 108.705C173.906 109.295 173.636 109.77 173.286 110.13C172.936 110.48 172.531 110.74 172.071 110.91C171.611 111.07 171.106 111.15 170.556 111.15H170.346ZM170.436 109.89C170.766 109.89 171.071 109.845 171.351 109.755C171.641 109.655 171.891 109.495 172.101 109.275C172.311 109.045 172.476 108.735 172.596 108.345C172.716 107.945 172.776 107.45 172.776 106.86V104.835C172.776 104.245 172.716 103.755 172.596 103.365C172.476 102.975 172.311 102.67 172.101 102.45C171.891 102.22 171.641 102.06 171.351 101.97C171.071 101.87 170.766 101.82 170.436 101.82C170.116 101.82 169.811 101.87 169.521 101.97C169.241 102.06 168.996 102.22 168.786 102.45C168.576 102.67 168.411 102.975 168.291 103.365C168.171 103.755 168.111 104.245 168.111 104.835V106.86C168.111 107.45 168.171 107.945 168.291 108.345C168.411 108.735 168.576 109.045 168.786 109.275C168.996 109.495 169.241 109.655 169.521 109.755C169.811 109.845 170.116 109.89 170.436 109.89Z" fill="url(#paint1_linear_108_2648)"/>
</g>
<defs>
<filter id="filter0_d_108_2648" x="1" y="66" width="240" height="79" filterUnits="userSpaceOnUse" color-interpolation-filters="sRGB">
<feFlood flood-opacity="0" result="BackgroundImageFix"/>
<feColorMatrix in="SourceAlpha" type="matrix" values="0 0 0 0 0 0 0 0 0 0 0 0 0 0 0 0 0 0 127 0" result="hardAlpha"/>
<feOffset/>
<feGaussianBlur stdDeviation="7.5"/>
<feComposite in2="hardAlpha" operator="out"/>
<feColorMatrix type="matrix" values="0 0 0 0 0.00812223 0 0 0 0 0.0186433 0 0 0 0 0.113333 0 0 0 0.1 0"/>
<feBlend mode="normal" in2="BackgroundImageFix" result="effect1_dropShadow_108_2648"/>
<feBlend mode="normal" in="SourceGraphic" in2="effect1_dropShadow_108_2648" result="shape"/>
</filter>
<linearGradient id="paint0_linear_108_2648" x1="66.2455" y1="-35.6715" x2="162.647" y2="86.9263" gradientUnits="userSpaceOnUse">
<stop stop-color="#00B4FD"/>
<stop offset="1" stop-color="#003ACE"/>
</linearGradient>
<linearGradient id="paint1_linear_108_2648" x1="-120.418" y1="51.5454" x2="104.976" y2="186.184" gradientUnits="userSpaceOnUse">
<stop stop-color="#00B4FD"/>
<stop offset="0.817853" stop-color="#003ACE"/>
</linearGradient>
</defs>
</svg>
