<svg width="72" height="67" viewBox="0 0 72 67" fill="none" xmlns="http://www.w3.org/2000/svg">
<path d="M23.798 52.5106C23.7552 52.5106 23.7084 52.5028 23.6616 52.4911C18.9663 51.0599 13.8811 45.9279 12.7775 41.5094C12.715 41.2599 12.8671 41.0103 13.1128 40.9479C13.3624 40.8855 13.612 41.0376 13.6744 41.2833C14.6922 45.3584 19.5825 50.276 23.9306 51.6058C24.1764 51.6799 24.3128 51.9373 24.2387 52.183C24.1802 52.3818 23.9969 52.5106 23.798 52.5106Z" fill="#252525"/>
<path d="M26.0366 58.333C26.0015 58.333 25.9664 58.3291 25.9313 58.3212C22.0472 57.4165 17.5313 54.5152 13.5458 50.358C9.81761 46.474 7.40369 42.3402 7.2477 39.5714C7.2321 39.3179 7.42708 39.0957 7.68446 39.0839C7.93795 39.0684 8.16023 39.2633 8.17193 39.5207C8.31233 42.0399 10.6833 46.041 14.2126 49.7185C18.0772 53.7508 22.4254 56.5547 26.1418 57.4204C26.3914 57.479 26.5475 57.7286 26.489 57.9781C26.4382 58.1887 26.2471 58.333 26.0366 58.333Z" fill="#252525"/>
<path d="M45.9446 17.8108C45.738 17.8108 45.5507 17.6744 45.4961 17.4677C44.8449 14.9953 41.885 11.4465 39.1903 10.7524C38.9446 10.6899 38.7925 10.4365 38.8589 10.1869C38.9251 9.93727 39.1747 9.78912 39.4243 9.85541C42.4583 10.6393 45.6638 14.4649 46.3931 17.2337C46.4594 17.4794 46.3112 17.7328 46.0616 17.7991C46.0226 17.807 45.9836 17.8108 45.9446 17.8108Z" fill="#252525"/>
<path d="M51.7824 18.6336C51.5757 18.6336 51.3885 18.4932 51.3339 18.2865C49.5985 11.4542 43.1094 6.12326 39.4047 5.46031C39.1511 5.41351 38.9873 5.17563 39.0303 4.92215C39.0771 4.66866 39.3149 4.50487 39.5684 4.54777C43.6046 5.27312 50.3746 10.7678 52.2308 18.0564C52.2932 18.306 52.1451 18.5556 51.8955 18.618C51.8564 18.6297 51.8214 18.6336 51.7824 18.6336Z" fill="#252525"/>
<path d="M40.2587 30.7737C41.0036 31.5965 41.6744 32.6768 41.3896 32.9614C41.105 33.2461 40.2315 32.7313 39.5646 32.0606C38.8978 31.3937 37.3027 38.4913 37.1468 38.85C37.0298 39.1191 35.1735 41.2483 34.2025 43.2723C33.8788 43.9469 33.9256 45.9826 33.8047 46.1035C33.3173 46.591 32.6972 46.5403 31.3596 45.3586C30.022 44.177 29.3278 51.216 30.9228 52.3275C33.6488 54.2305 39.1006 61.7921 46.3033 61.7921C54.637 61.7921 62.3546 53.0996 62.3546 46.7196C62.3546 40.3397 60.4827 37.9218 60.6075 32.5753C60.7089 28.0478 64.0041 25.8873 64.0041 23.6255C64.0041 21.7224 61.1769 21.2584 60.2488 21.2584C58.603 21.2584 54.3836 23.3681 54.3836 28.9213C54.3836 31.0817 53.7674 33.0355 51.5563 33.0355C49.3451 33.0355 46.8766 30.0016 45.383 27.6344" fill="url(#paint0_linear_16_1809)"/>
<path d="M64.0004 23.6254C64.0004 22.592 63.162 21.9836 62.2494 21.6404C63.3452 25.2711 57.7882 25.4271 57.7882 37.797C57.7882 50.167 50.5853 53.7664 47.602 54.3864C44.6187 55.0027 39.3619 55.182 35.3608 50.2723C34.1324 48.763 32.4673 47.1252 30.6149 45.577C29.831 46.8834 29.6634 51.45 30.923 52.3274C33.6489 54.2305 39.1006 61.792 46.3035 61.792C54.6371 61.792 62.3547 53.0995 62.3547 46.7196C62.3547 40.3396 60.4829 37.9218 60.6077 32.5753C60.709 28.0477 64.0004 25.8873 64.0004 23.6254Z" fill="url(#paint1_linear_16_1809)"/>
<path d="M31.3597 45.3587C30.0222 44.1771 26.8594 40.8077 24.8005 39.1581C22.7414 37.5125 20.9436 37.532 19.7074 39.3492C18.4712 41.1666 22.0746 44.3565 22.8973 45.1793C24.157 46.4389 29.328 51.2161 30.923 52.3314" fill="url(#paint2_linear_16_1809)"/>
<path d="M37.1468 38.8496C36.9908 39.2085 35.9417 39.458 33.8554 37.1884C32.2605 35.453 27.9903 30.4652 25.471 28.2034C22.9518 25.9416 20.9941 25.0134 19.3484 26.199C17.7027 27.3844 18.6387 29.8491 20.4794 31.9082C22.7568 34.4546 25.3774 37.0519 27.885 39.5477C29.8465 41.4975 34.2883 45.6196 33.8008 46.1071" fill="url(#paint3_linear_16_1809)"/>
<path d="M27.8889 39.5439C29.7413 41.3846 33.7971 45.1556 33.8399 45.9863C34.4249 45.0738 33.3564 42.3596 32.2254 41.4081C25.6895 35.9055 19.3759 27.0336 18.5725 27.2988C18.2293 28.5897 19.099 30.3601 20.4795 31.9083C22.7569 34.4509 25.3775 37.0521 27.8889 39.5439Z" fill="url(#paint4_linear_16_1809)"/>
<path d="M45.3792 27.6382C43.8857 25.271 37.763 17.6588 36.2733 15.4984C34.7798 13.3378 32.7753 13.3378 31.387 14.3167C29.9987 15.2955 29.5853 17.2493 32.7129 21.4025C34.6862 24.0231 36.324 26.4331 40.2628 30.7774L44.841 30.4577L45.3792 27.6382Z" fill="url(#paint5_linear_16_1809)"/>
<path d="M39.5646 32.0605C38.8978 31.3937 32.9819 24.382 31.6443 22.8767C29.1368 20.061 25.9585 14.0282 22.168 16.7151C20.1752 18.1268 21.2555 20.1741 21.8209 20.997C22.3864 21.8199 29.7413 30.3096 30.4627 31.0271C31.1842 31.7485 37.3029 38.4873 37.1508 38.846" fill="url(#paint6_linear_16_1809)"/>
<path d="M40.2589 30.7733C40.9764 31.565 41.6198 32.5906 41.4171 32.9221C43.8037 31.0034 38.7575 25.3645 35.899 21.9795C33.6879 19.3589 33.0834 16.0246 31.5001 14.2385C31.4611 14.2619 31.426 14.2892 31.387 14.3126C29.9987 15.2915 29.5853 17.2452 32.7129 21.3984C34.6822 24.019 36.324 26.433 40.2589 30.7733Z" fill="url(#paint7_linear_16_1809)"/>
<path d="M30.4589 31.031C31.1803 31.7524 37.299 38.4911 37.1469 38.8499C39.0382 36.3034 31.7068 28.8198 28.158 25.0371C25.0811 21.7574 24.5546 18.8872 21.5518 17.2766C20.4365 18.626 21.3218 20.2794 21.817 21.0009C22.3825 21.8237 29.7413 30.3134 30.4589 31.031Z" fill="url(#paint8_linear_16_1809)"/>
<path d="M37.0102 39.0025C36.7957 39.1351 36.355 39.1467 35.6726 38.7529C36.1796 39.1623 36.6475 39.3183 37.0102 39.0025Z" fill="url(#paint9_linear_16_1809)"/>
<path d="M60.6817 22.0305C62.2533 21.7497 62.5302 21.9291 62.2494 21.6405C61.485 21.3559 60.6661 21.2584 60.245 21.2584C58.5992 21.2584 54.3797 23.3681 54.3797 28.9213C54.3797 31.0818 53.7636 33.0355 51.5485 33.0355C50.675 33.0355 49.7664 32.5637 48.8889 31.8461C52.7731 36.1475 55.8187 32.0957 56.2828 29.3191C56.7469 26.5425 56.0722 22.8572 60.6817 22.0305Z" fill="url(#paint10_radial_16_1809)"/>
<path d="M30.9111 14.7339C29.9518 15.822 29.983 17.7719 32.7089 21.3986C34.6822 24.0192 36.32 26.4292 40.2588 30.7735C41.0036 31.5964 41.6743 32.6766 41.3897 32.9613C42.0487 28.461 35.6415 24.0348 33.5591 20.642C31.9095 17.9513 31.5819 16.364 30.9111 14.7339Z" fill="url(#paint11_linear_16_1809)"/>
<path d="M30.4589 31.0309C31.1804 31.7524 37.299 38.4911 37.1469 38.8498C38.4962 37.8866 37.5759 36.3852 35.4896 34.2989C31.2116 30.0209 25.2567 24.2727 22.8623 19.5385C22.6361 19.09 22.2149 18.7585 21.7197 18.6961C20.4288 18.5284 21.3882 20.373 21.821 21.0008C22.3826 21.8237 29.7414 30.3134 30.4589 31.0309Z" fill="url(#paint12_linear_16_1809)"/>
<path d="M20.4794 31.9082C22.7569 34.4547 25.3775 37.0519 27.885 39.5478C29.8466 41.4977 34.2884 45.6196 33.8009 46.1071C36.5541 43.7907 23.7669 35.418 18.5686 27.3026C18.2293 28.5857 19.0989 30.3601 20.4794 31.9082Z" fill="url(#paint13_linear_16_1809)"/>
<path d="M33.2395 46.5674C33.5008 46.4661 33.6373 46.3452 33.6801 46.2126C33.2083 46.5753 32.5882 46.4466 31.3598 45.3585C30.0222 44.1769 26.8595 40.8076 24.8005 39.158C23.8957 38.4366 23.0417 38.0349 22.2617 37.9647C23.377 38.6627 22.8584 38.9123 25.3387 40.8154C26.6724 41.8371 31.5392 47.2343 33.2395 46.5674Z" fill="url(#paint14_linear_16_1809)"/>
<path d="M29.9988 34.2212C31.8043 36.4206 35.3297 40.0513 36.913 39.049C36.4762 39.1973 35.4817 38.9555 33.8594 37.1889C32.2645 35.4535 27.9943 30.4658 25.475 28.2039C23.4355 26.3711 21.7625 25.4156 20.3274 25.7471C24.504 27.1198 28.2867 32.1426 29.9988 34.2212Z" fill="url(#paint15_linear_16_1809)"/>
<path d="M31.9526 24.7562C34.8344 27.8916 39.1125 34.1117 41.2807 33.0236C40.9258 33.1328 40.1615 32.661 39.5648 32.0604C38.898 31.3936 32.9821 24.3819 31.6445 22.8766C29.9053 20.9267 27.85 17.4325 25.4868 16.364C27.8696 18.2437 29.6167 22.2175 31.9526 24.7562Z" fill="url(#paint16_linear_16_1809)"/>
<path d="M48.889 31.8497C48.8929 31.8497 48.8929 31.8497 48.889 31.8497C47.5435 30.7499 46.2801 29.0692 45.3753 27.638C43.8856 25.2708 37.7631 17.6586 36.2734 15.4982C35.8171 14.8391 35.3179 14.3828 34.7993 14.0942C35.4935 15.0925 35.8873 16.516 37.4588 18.2786C39.9781 21.1059 43.2733 26.199 44.4043 27.9499C45.5313 29.6931 47.3564 33.3823 48.889 31.8497Z" fill="url(#paint17_linear_16_1809)"/>
<path d="M57.1408 56.9566C56.2048 54.6791 54.8361 53.2908 52.859 54.5933C47.4656 58.146 41.2612 56.9449 33.4812 50.6585C26.5436 45.0468 22.9558 41.0379 19.5787 39.5872C18.7676 41.4317 22.1057 44.3917 22.8935 45.1794C24.1531 46.439 29.3241 51.2162 30.9191 52.3315C33.645 54.2346 39.0968 61.7961 46.2996 61.7961C50.328 61.7922 54.2043 59.7683 57.1408 56.9566Z" fill="url(#paint18_linear_16_1809)"/>
<path d="M60.6037 32.5751C60.7051 28.0475 64.0004 25.8871 64.0004 23.6253C64.0004 22.9584 63.6533 22.471 63.1619 22.1161C63.7624 23.8788 62.3313 25.4426 60.1942 28.1022C57.8778 30.9841 57.367 35.4571 58.9581 39.9339C60.553 44.4108 58.5446 50.5841 55.304 52.5379C52.0633 54.4916 47.758 63.0827 35.431 53.3763C35.4271 53.3724 35.4271 53.3724 35.4232 53.3685C34.6705 52.6705 33.9257 52.0504 33.173 51.5824C27.967 48.3573 24.9992 45.456 22.7569 43.0187C22.3163 42.539 21.1307 40.7022 19.719 41.3066C20.4249 42.9055 22.324 44.6098 22.8934 45.1791C24.153 46.4387 29.324 51.2158 30.919 52.3311C31.1257 52.4754 31.3518 52.6548 31.5897 52.8616C31.6522 52.9161 31.7145 52.9707 31.777 53.0253C31.7925 53.0409 31.812 53.0565 31.8276 53.0682C31.8666 53.1033 31.9095 53.1423 31.9486 53.1775C31.9563 53.1852 31.9681 53.193 31.9758 53.2047C33.5942 54.6749 35.8209 57.1083 38.5508 59.0075C38.5508 59.0075 38.5547 59.0075 38.5547 59.0114C38.7926 59.1791 39.0382 59.3429 39.2839 59.4988C39.2878 59.5028 39.2917 59.5028 39.2956 59.5066C39.5413 59.6627 39.7909 59.8147 40.0405 59.959C40.0443 59.959 40.0443 59.9629 40.0483 59.9629C41.9357 61.0471 44.0299 61.7958 46.2917 61.7958C54.6254 61.7958 62.3429 53.1033 62.3429 46.7234C62.3429 40.3434 60.4828 37.9256 60.6037 32.5751Z" fill="url(#paint19_radial_16_1809)"/>
<defs>
<linearGradient id="paint0_linear_16_1809" x1="58.3032" y1="63.4424" x2="51.436" y2="47.3536" gradientUnits="userSpaceOnUse">
<stop offset="0.00132565" stop-color="#FFCB4B"/>
<stop offset="1" stop-color="#FFD748"/>
</linearGradient>
<linearGradient id="paint1_linear_16_1809" x1="59.67" y1="52.2525" x2="45.2666" y2="35.0713" gradientUnits="userSpaceOnUse">
<stop offset="0.00132565" stop-color="#FFCB4B"/>
<stop offset="1" stop-color="#FFD748"/>
</linearGradient>
<linearGradient id="paint2_linear_16_1809" x1="21.1711" y1="40.8139" x2="29.6588" y2="47.064" gradientUnits="userSpaceOnUse">
<stop offset="0.00132565" stop-color="#FFCB4B"/>
<stop offset="1" stop-color="#FFD748"/>
</linearGradient>
<linearGradient id="paint3_linear_16_1809" x1="18.0804" y1="24.2709" x2="32.9725" y2="39.8574" gradientUnits="userSpaceOnUse">
<stop offset="0.00132565" stop-color="#FFCB4B"/>
<stop offset="1" stop-color="#FFD748"/>
</linearGradient>
<linearGradient id="paint4_linear_16_1809" x1="29.5127" y1="33.5267" x2="24.5899" y2="38.1642" gradientUnits="userSpaceOnUse">
<stop stop-color="#FFBC47" stop-opacity="0"/>
<stop offset="1" stop-color="#FFA754"/>
</linearGradient>
<linearGradient id="paint5_linear_16_1809" x1="34.1656" y1="16.9174" x2="42.8076" y2="30.4977" gradientUnits="userSpaceOnUse">
<stop offset="0.00132565" stop-color="#FFCB4B"/>
<stop offset="1" stop-color="#FFD748"/>
</linearGradient>
<linearGradient id="paint6_linear_16_1809" x1="25.2447" y1="19.1735" x2="36.9732" y2="35.0172" gradientUnits="userSpaceOnUse">
<stop offset="0.00132565" stop-color="#FFCB4B"/>
<stop offset="1" stop-color="#FFD748"/>
</linearGradient>
<linearGradient id="paint7_linear_16_1809" x1="39.1935" y1="21.085" x2="31.786" y2="27.7723" gradientUnits="userSpaceOnUse">
<stop stop-color="#FFBC47" stop-opacity="0"/>
<stop offset="1" stop-color="#FFA754"/>
</linearGradient>
<linearGradient id="paint8_linear_16_1809" x1="32.3797" y1="25.8496" x2="22.1945" y2="33.2956" gradientUnits="userSpaceOnUse">
<stop stop-color="#FFBC47" stop-opacity="0"/>
<stop offset="1" stop-color="#FFA754"/>
</linearGradient>
<linearGradient id="paint9_linear_16_1809" x1="39.9669" y1="36.2286" x2="29.7816" y2="43.6746" gradientUnits="userSpaceOnUse">
<stop stop-color="#FFBC47" stop-opacity="0"/>
<stop offset="1" stop-color="#FFA754"/>
</linearGradient>
<radialGradient id="paint10_radial_16_1809" cx="0" cy="0" r="1" gradientUnits="userSpaceOnUse" gradientTransform="translate(53.3318 24.1398) scale(12.2278)">
<stop stop-color="#FFBC47" stop-opacity="0"/>
<stop offset="1" stop-color="#FFA754"/>
</radialGradient>
<linearGradient id="paint11_linear_16_1809" x1="40.5489" y1="19.7719" x2="34.2217" y2="25.6362" gradientUnits="userSpaceOnUse">
<stop offset="0.3118" stop-color="#FFBC47" stop-opacity="0"/>
<stop offset="1" stop-color="#FF8900"/>
</linearGradient>
<linearGradient id="paint12_linear_16_1809" x1="35.704" y1="22.9504" x2="27.3706" y2="30.4607" gradientUnits="userSpaceOnUse">
<stop offset="0.3118" stop-color="#FFBC47" stop-opacity="0"/>
<stop offset="1" stop-color="#FF8900"/>
</linearGradient>
<linearGradient id="paint13_linear_16_1809" x1="32.8876" y1="31.0735" x2="22.5994" y2="39.7156" gradientUnits="userSpaceOnUse">
<stop offset="0.3118" stop-color="#FFBC47" stop-opacity="0"/>
<stop offset="1" stop-color="#FF8900"/>
</linearGradient>
<linearGradient id="paint14_linear_16_1809" x1="21.6618" y1="37.3517" x2="33.6218" y2="47.074" gradientUnits="userSpaceOnUse">
<stop stop-color="#FFBC47" stop-opacity="0"/>
<stop offset="1" stop-color="#FFBC47"/>
</linearGradient>
<linearGradient id="paint15_linear_16_1809" x1="23.9509" y1="25.3009" x2="33.2874" y2="39.4986" gradientUnits="userSpaceOnUse">
<stop stop-color="#FFBC47" stop-opacity="0"/>
<stop offset="1" stop-color="#FFBC47"/>
</linearGradient>
<linearGradient id="paint16_linear_16_1809" x1="31.2643" y1="26.3148" x2="33.8878" y2="24.3086" gradientUnits="userSpaceOnUse">
<stop stop-color="#FFBC47" stop-opacity="0"/>
<stop offset="1" stop-color="#FFA754"/>
</linearGradient>
<linearGradient id="paint17_linear_16_1809" x1="44.2103" y1="34.2407" x2="40.7122" y2="17.5739" gradientUnits="userSpaceOnUse">
<stop stop-color="#FFBC47" stop-opacity="0"/>
<stop offset="1" stop-color="#FFBC47"/>
</linearGradient>
<linearGradient id="paint18_linear_16_1809" x1="36.2251" y1="50.2371" x2="30.9781" y2="55.0597" gradientUnits="userSpaceOnUse">
<stop offset="0.3118" stop-color="#FFBC47" stop-opacity="0"/>
<stop offset="1" stop-color="#FF8900"/>
</linearGradient>
<radialGradient id="paint19_radial_16_1809" cx="0" cy="0" r="1" gradientUnits="userSpaceOnUse" gradientTransform="translate(39.7003 34.2985) rotate(48.1401) scale(35.4429 32.171)">
<stop offset="0.6134" stop-color="#FFBC47" stop-opacity="0"/>
<stop offset="1" stop-color="#FF8900"/>
</radialGradient>
</defs>
</svg>
