<svg width="72" height="67" viewBox="0 0 72 67" fill="none" xmlns="http://www.w3.org/2000/svg">
<path d="M27.7031 54.4106C27.661 54.4188 27.6136 54.42 27.5655 54.4175C22.6834 53.9078 16.7129 49.8396 14.7871 45.7126C14.6782 45.4796 14.7799 45.2056 15.0092 45.0974C15.2423 44.9886 15.5163 45.0903 15.6245 45.3196C17.4006 49.1259 23.1388 53.0208 27.6607 53.4972C27.9161 53.523 28.0991 53.7497 28.0732 54.005C28.0537 54.2113 27.8983 54.3727 27.7031 54.4106Z" fill="#252525"/>
<path d="M31.0105 59.6995C30.9761 59.7062 30.9409 59.7091 30.9049 59.7081C26.9195 59.5605 21.9333 57.5735 17.2282 54.2526C12.8279 51.1506 9.67005 47.5529 8.98899 44.8647C8.92534 44.6188 9.07437 44.3635 9.32479 44.3029C9.57066 44.2393 9.82603 44.3883 9.8866 44.6387C10.5048 47.085 13.5952 50.5606 17.7609 53.4976C22.3234 56.7191 27.1265 58.6424 30.9398 58.7837C31.196 58.7935 31.3968 59.0088 31.3869 59.2649C31.3773 59.4813 31.2172 59.6594 31.0105 59.6995Z" fill="#252525"/>
<path d="M42.8269 16.1248C42.624 16.1642 42.4142 16.066 42.3212 15.8734C41.2105 13.5706 37.6283 10.6513 34.8507 10.4837C34.5976 10.4692 34.3999 10.2494 34.4175 9.99177C34.4349 9.73411 34.6516 9.5411 34.9093 9.55858C38.0371 9.74956 41.9132 12.8937 43.1571 15.4727C43.269 15.7013 43.1719 15.9783 42.9395 16.091C42.9028 16.1061 42.8652 16.1173 42.8269 16.1248Z" fill="#252525"/>
<path d="M48.7144 15.8195C48.5115 15.8589 48.301 15.7568 48.208 15.5642C45.2017 9.18816 37.8151 5.19237 34.052 5.24798C33.7942 5.25038 33.588 5.0481 33.5818 4.79108C33.5794 4.53332 33.7817 4.32718 34.0387 4.32097C38.1392 4.2634 45.8326 8.36642 49.0446 15.1673C49.1534 15.4005 49.0555 15.6737 48.8224 15.7826C48.7864 15.8015 48.7527 15.812 48.7144 15.8195Z" fill="#252525"/>
<path d="M39.7169 29.9339C40.605 30.5995 41.4695 31.5321 41.2442 31.8658C41.0191 32.1995 40.0634 31.8608 39.2809 31.3295C38.4991 30.802 38.2867 38.0735 38.202 38.4554C38.1385 38.7418 36.7223 41.1859 36.155 43.3579C35.9659 44.0819 36.4 46.0713 36.3043 46.213C35.9188 46.7845 35.3004 46.8529 33.762 45.9481C32.2236 45.0432 32.8844 52.0854 34.6621 52.8723C37.7008 54.2207 44.4944 60.604 51.565 59.2306C59.7458 57.6416 65.6644 47.6371 64.4479 41.3741C63.2314 35.1113 60.9328 33.0947 60.0359 27.8224C59.2721 23.3587 62.095 20.6095 61.6637 18.3892C61.3008 16.521 58.4369 16.6045 57.5259 16.7815C55.9103 17.0953 52.1706 19.9709 53.2294 25.4222C53.6413 27.543 53.409 29.5784 51.2385 30C49.0679 30.4216 46.0662 27.914 44.1485 25.8751" fill="url(#paint0_linear_16_1811)"/>
<path d="M61.6602 18.3902C61.4631 17.3758 60.5241 16.9384 59.5628 16.7755C61.3308 20.1306 55.9054 21.3433 58.2641 33.4863C60.6227 45.6293 54.2383 50.5361 51.428 51.7136C48.6169 52.8874 43.4908 54.0658 38.6269 50.009C37.1333 48.7617 35.1864 47.4714 33.0727 46.3048C32.5524 47.7367 33.2585 52.2515 34.6623 52.8726C37.7011 54.221 44.4946 60.6043 51.5653 59.2309C59.7461 57.6419 65.6646 47.6373 64.4481 41.3745C63.2316 35.1116 60.9331 33.095 60.0362 27.8228C59.2724 23.3589 62.0915 20.6106 61.6602 18.3902Z" fill="url(#paint1_linear_16_1811)"/>
<path d="M33.7622 45.9484C32.2239 45.0435 28.4767 42.339 26.1409 41.1122C23.8059 39.8894 22.0447 40.2513 21.1777 42.2709C20.3107 44.2906 24.4562 46.735 25.4208 47.3858C26.8975 48.3821 32.8845 52.0857 34.6629 52.8764" fill="url(#paint2_linear_16_1811)"/>
<path d="M38.2022 38.4553C38.1174 38.8373 37.1352 39.2822 34.6544 37.4521C32.7578 36.0527 27.6149 31.9706 24.7106 30.2306C21.8063 28.4907 19.7076 27.9528 18.3182 29.4304C16.9287 30.9079 18.3175 33.1489 20.517 34.8192C23.2382 36.8847 26.3059 38.9346 29.2434 40.9065C31.5407 42.4466 36.687 45.6461 36.3014 46.2175" fill="url(#paint3_linear_16_1811)"/>
<path d="M29.2464 40.9022C31.4158 42.3559 36.1162 45.2844 36.3166 46.0916C36.7169 45.0843 35.1504 42.6236 33.8588 41.9052C26.3936 37.7499 18.5042 30.2446 17.7661 30.6581C17.6753 31.9907 18.8666 33.5628 20.517 34.8194C23.2375 36.8812 26.306 38.9349 29.2464 40.9022Z" fill="url(#paint4_linear_16_1811)"/>
<path d="M44.1456 25.8799C42.2281 23.8409 34.7664 17.5358 32.892 15.699C31.0139 13.8629 29.0462 14.2451 27.8701 15.4708C26.6939 16.6963 26.6606 18.6931 30.5227 22.1737C32.9595 24.37 35.0268 26.4235 39.7216 29.9371L44.1549 28.7503L44.1456 25.8799Z" fill="url(#paint5_linear_16_1811)"/>
<path d="M39.2812 31.3298C38.4994 30.8024 31.3551 25.0473 29.755 23.8247C26.7567 21.5388 22.4864 16.2227 19.2777 19.583C17.5907 21.3488 19.0415 23.1526 19.7535 23.8526C20.4655 24.5525 29.3042 31.4841 30.1492 32.0509C30.995 32.6215 38.2863 38.07 38.2054 38.4511" fill="url(#paint6_linear_16_1811)"/>
<path d="M39.7169 29.9337C40.5723 30.574 41.3995 31.4581 41.2637 31.8222C43.2406 29.4837 37.2118 24.9103 33.7603 22.1325C31.0901 19.9816 29.8609 16.8238 27.9661 15.3723C27.9323 15.4028 27.903 15.4362 27.8692 15.4666C26.693 16.6922 26.6597 18.689 30.5219 22.1696C32.9548 24.3666 35.0267 26.4233 39.7169 29.9337Z" fill="url(#paint7_linear_16_1811)"/>
<path d="M30.146 32.0553C30.9917 32.6259 38.283 38.0744 38.2021 38.4555C39.5732 35.5952 30.9494 29.6468 26.7444 26.6101C23.0987 23.9773 22.0346 21.2601 18.7798 20.2516C17.9422 21.7889 19.1264 23.2432 19.7502 23.857C20.4622 24.5569 29.3047 31.4877 30.146 32.0553Z" fill="url(#paint8_linear_16_1811)"/>
<path d="M38.0972 38.6312C37.9119 38.8022 37.4816 38.8976 36.7366 38.6412C37.3123 38.9465 37.8014 39.0103 38.0972 38.6312Z" fill="url(#paint9_linear_16_1811)"/>
<path d="M58.0982 17.4571C59.5874 16.8818 59.8934 17.0051 59.5627 16.7754C58.7581 16.6417 57.9356 16.7021 57.5222 16.7824C55.9067 17.0962 52.1669 19.9718 53.2257 25.4231C53.6377 27.5439 53.4054 29.5793 51.2309 30.0017C50.3735 30.1682 49.3915 29.8783 48.3933 29.3412C53.0264 32.8231 55.2436 28.2649 55.1697 25.4507C55.0959 22.6366 53.7309 19.1476 58.0982 17.4571Z" fill="url(#paint10_radial_16_1811)"/>
<path d="M27.4826 15.9709C26.7484 17.2219 27.1508 19.1301 30.5182 22.1705C32.955 24.3667 35.0223 26.4203 39.7172 29.9338C40.6052 30.5996 41.4696 31.5321 41.2445 31.8658C41.0333 27.3224 33.8997 24.1991 31.2085 21.2657C29.0762 18.9388 28.4519 17.4432 27.4826 15.9709Z" fill="url(#paint11_linear_16_1811)"/>
<path d="M30.146 32.0554C30.9918 32.626 38.2831 38.0744 38.2022 38.4556C39.3431 37.2527 38.1534 35.9544 35.7075 34.3041C30.6923 30.9203 23.7506 26.413 20.4974 22.2222C20.1899 21.8251 19.7132 21.58 19.2152 21.6132C17.916 21.6947 19.2095 23.3225 19.7541 23.8563C20.4623 24.557 29.3048 31.4878 30.146 32.0554Z" fill="url(#paint12_linear_16_1811)"/>
<path d="M20.517 34.8193C23.2382 36.8849 26.306 38.9347 29.2434 40.9067C31.5407 42.4468 36.687 45.6462 36.3014 46.2176C38.5624 43.4187 24.4134 37.6379 17.7631 30.6626C17.6746 31.9868 18.8666 33.5628 20.517 34.8193Z" fill="url(#paint13_linear_16_1811)"/>
<path d="M35.8379 46.7766C36.075 46.6272 36.1859 46.4826 36.2027 46.3442C35.8087 46.7902 35.1755 46.7821 33.7622 45.9482C32.2238 45.0434 28.4767 42.3389 26.1409 41.1122C25.1152 40.5765 24.2002 40.345 23.4211 40.4248C24.6491 40.8974 24.1876 41.2413 26.9852 42.6365C28.4893 43.3852 34.2959 47.7554 35.8379 46.7766Z" fill="url(#paint14_linear_16_1811)"/>
<path d="M30.3026 35.2744C32.4943 37.0892 36.6473 39.9811 38.0104 38.6953C37.6099 38.9241 36.5876 38.8763 34.6582 37.4516C32.7617 36.0521 27.6188 31.9701 24.7145 30.2301C22.3629 28.8198 20.5384 28.2008 19.1928 28.7999C23.5545 29.351 28.2256 33.5604 30.3026 35.2744Z" fill="url(#paint15_linear_16_1811)"/>
<path d="M30.4158 25.6108C33.8426 28.1392 39.2283 33.4295 41.1492 31.948C40.8216 32.1228 39.9813 31.8054 39.2811 31.3296C38.4994 30.8021 31.3551 25.0471 29.755 23.8245C27.6759 22.242 24.9921 19.2038 22.4685 18.6055C25.1659 19.9964 27.6387 23.5642 30.4158 25.6108Z" fill="url(#paint16_linear_16_1811)"/>
<path d="M48.3939 29.3448C48.3978 29.344 48.3978 29.344 48.3939 29.3448C46.8635 28.5217 45.3027 27.1127 44.1417 25.8803C42.2279 23.8406 34.7663 17.5354 32.892 15.6987C32.3184 15.1387 31.7414 14.786 31.1772 14.6016C32.049 15.4492 32.707 16.7715 34.5858 18.2021C37.598 20.4972 41.8039 24.8685 43.248 26.3717C44.6866 27.868 47.1817 31.1414 48.3939 29.3448Z" fill="url(#paint17_linear_16_1811)"/>
<path d="M61.2817 52.4175C59.9287 50.3603 58.3203 49.2585 56.6279 50.9141C52.0108 55.43 45.6913 55.4339 36.8553 50.7463C28.975 46.5604 24.6887 43.3091 21.0969 42.529C20.6523 44.4943 24.4937 46.7635 25.4171 47.3865C26.8938 48.3829 32.8808 52.0864 34.6593 52.8772C37.698 54.2255 44.4916 60.6088 51.5622 59.2354C55.516 58.4635 58.9352 55.7376 61.2817 52.4175Z" fill="url(#paint18_linear_16_1811)"/>
<path d="M60.0322 27.8233C59.2684 23.3595 62.0914 20.6103 61.6601 18.39C61.5329 17.7353 61.0992 17.3231 60.5492 17.0684C61.4748 18.6842 60.3681 20.4922 58.7774 23.5105C57.0529 26.7812 57.4044 31.2695 59.8199 35.3609C62.2392 39.4515 61.4448 45.8945 58.6361 48.4303C55.8274 50.9662 53.2392 60.2205 39.2875 53.0427C39.283 53.0395 39.283 53.0395 39.2784 53.0364C38.4065 52.4947 37.557 52.0281 36.729 51.7122C31.0035 49.5389 27.537 47.2567 24.871 45.2917C24.347 44.9048 22.833 43.3278 21.5625 44.1903C22.5602 45.6252 24.7495 46.9361 25.417 47.3864C26.8937 48.3827 32.8807 52.0862 34.6591 52.877C34.8895 52.9792 35.1457 53.1122 35.4186 53.2698C35.4903 53.3114 35.5619 53.3531 35.6336 53.3948C35.6519 53.4072 35.674 53.4187 35.6915 53.4273C35.7365 53.4543 35.7861 53.4844 35.8311 53.5114C35.8402 53.5176 35.8532 53.523 35.8631 53.533C37.7321 54.6676 40.3819 56.6318 43.4238 57.9757C43.4238 57.9757 43.4277 57.9749 43.4284 57.9787C43.6939 58.098 43.9663 58.212 44.2372 58.3182C44.2418 58.3213 44.2456 58.3206 44.2502 58.3236C44.5211 58.4299 44.7951 58.5316 45.0677 58.6257C45.0714 58.6249 45.0722 58.6287 45.076 58.628C47.1356 59.3324 49.3341 59.6681 51.5544 59.2368C59.7352 57.6478 65.6537 47.6432 64.4372 41.3804C63.2207 35.1174 60.9338 33.0986 60.0322 27.8233Z" fill="url(#paint19_radial_16_1811)"/>
<defs>
<linearGradient id="paint0_linear_16_1811" x1="63.6594" y1="58.5626" x2="53.8504" y2="44.0783" gradientUnits="userSpaceOnUse">
<stop offset="0.00132565" stop-color="#FFCB4B"/>
<stop offset="1" stop-color="#FFD748"/>
</linearGradient>
<linearGradient id="paint1_linear_16_1811" x1="62.8677" y1="47.3178" x2="45.4525" y2="33.1981" gradientUnits="userSpaceOnUse">
<stop offset="0.00132565" stop-color="#FFCB4B"/>
<stop offset="1" stop-color="#FFD748"/>
</linearGradient>
<linearGradient id="paint2_linear_16_1811" x1="22.8938" y1="43.4296" x2="32.4176" y2="47.9467" gradientUnits="userSpaceOnUse">
<stop offset="0.00132565" stop-color="#FFCB4B"/>
<stop offset="1" stop-color="#FFD748"/>
</linearGradient>
<linearGradient id="paint3_linear_16_1811" x1="16.7057" y1="27.7795" x2="34.2966" y2="40.2405" gradientUnits="userSpaceOnUse">
<stop offset="0.00132565" stop-color="#FFCB4B"/>
<stop offset="1" stop-color="#FFD748"/>
</linearGradient>
<linearGradient id="paint4_linear_16_1811" x1="29.6931" y1="34.6857" x2="25.7448" y2="40.1767" gradientUnits="userSpaceOnUse">
<stop stop-color="#FFBC47" stop-opacity="0"/>
<stop offset="1" stop-color="#FFA754"/>
</linearGradient>
<linearGradient id="paint5_linear_16_1811" x1="31.0936" y1="17.4939" x2="42.1665" y2="29.1773" gradientUnits="userSpaceOnUse">
<stop offset="0.00132565" stop-color="#FFCB4B"/>
<stop offset="1" stop-color="#FFD748"/>
</linearGradient>
<linearGradient id="paint6_linear_16_1811" x1="22.7667" y1="21.4097" x2="37.301" y2="34.7264" gradientUnits="userSpaceOnUse">
<stop offset="0.00132565" stop-color="#FFCB4B"/>
<stop offset="1" stop-color="#FFD748"/>
</linearGradient>
<linearGradient id="paint7_linear_16_1811" x1="36.8238" y1="20.6263" x2="30.8273" y2="28.6033" gradientUnits="userSpaceOnUse">
<stop stop-color="#FFBC47" stop-opacity="0"/>
<stop offset="1" stop-color="#FFA754"/>
</linearGradient>
<linearGradient id="paint8_linear_16_1811" x1="31.0436" y1="26.6027" x2="22.465" y2="35.8542" gradientUnits="userSpaceOnUse">
<stop stop-color="#FFBC47" stop-opacity="0"/>
<stop offset="1" stop-color="#FFA754"/>
</linearGradient>
<linearGradient id="paint9_linear_16_1811" x1="40.4707" y1="35.3444" x2="31.8921" y2="44.5959" gradientUnits="userSpaceOnUse">
<stop stop-color="#FFBC47" stop-opacity="0"/>
<stop offset="1" stop-color="#FFA754"/>
</linearGradient>
<radialGradient id="paint10_radial_16_1811" cx="0" cy="0" r="1" gradientUnits="userSpaceOnUse" gradientTransform="translate(51.2853 20.9291) rotate(-10.9921) scale(12.2278)">
<stop stop-color="#FFBC47" stop-opacity="0"/>
<stop offset="1" stop-color="#FFA754"/>
</radialGradient>
<linearGradient id="paint11_linear_16_1811" x1="37.9042" y1="19.0787" x2="32.8113" y2="26.0418" gradientUnits="userSpaceOnUse">
<stop offset="0.3118" stop-color="#FFBC47" stop-opacity="0"/>
<stop offset="1" stop-color="#FF8900"/>
</linearGradient>
<linearGradient id="paint12_linear_16_1811" x1="33.7541" y1="23.1229" x2="27.0057" y2="32.0844" gradientUnits="userSpaceOnUse">
<stop offset="0.3118" stop-color="#FFBC47" stop-opacity="0"/>
<stop offset="1" stop-color="#FF8900"/>
</linearGradient>
<linearGradient id="paint13_linear_16_1811" x1="32.5383" y1="31.634" x2="24.0867" y2="42.0792" gradientUnits="userSpaceOnUse">
<stop offset="0.3118" stop-color="#FFBC47" stop-opacity="0"/>
<stop offset="1" stop-color="#FF8900"/>
</linearGradient>
<linearGradient id="paint14_linear_16_1811" x1="22.7153" y1="39.9374" x2="36.3097" y2="47.2009" gradientUnits="userSpaceOnUse">
<stop stop-color="#FFBC47" stop-opacity="0"/>
<stop offset="1" stop-color="#FFBC47"/>
</linearGradient>
<linearGradient id="paint15_linear_16_1811" x1="22.6647" y1="27.671" x2="34.5371" y2="39.8279" gradientUnits="userSpaceOnUse">
<stop stop-color="#FFBC47" stop-opacity="0"/>
<stop offset="1" stop-color="#FFBC47"/>
</linearGradient>
<linearGradient id="paint16_linear_16_1811" x1="30.0373" y1="27.2721" x2="32.2301" y2="24.8025" gradientUnits="userSpaceOnUse">
<stop stop-color="#FFBC47" stop-opacity="0"/>
<stop offset="1" stop-color="#FFA754"/>
</linearGradient>
<linearGradient id="paint17_linear_16_1811" x1="44.257" y1="32.5841" x2="37.6451" y2="16.8899" gradientUnits="userSpaceOnUse">
<stop stop-color="#FFBC47" stop-opacity="0"/>
<stop offset="1" stop-color="#FFBC47"/>
</linearGradient>
<linearGradient id="paint18_linear_16_1811" x1="39.4685" y1="49.8094" x2="35.2374" y2="55.544" gradientUnits="userSpaceOnUse">
<stop offset="0.3118" stop-color="#FFBC47" stop-opacity="0"/>
<stop offset="1" stop-color="#FF8900"/>
</linearGradient>
<radialGradient id="paint19_radial_16_1811" cx="0" cy="0" r="1" gradientUnits="userSpaceOnUse" gradientTransform="translate(39.8409 33.5008) rotate(37.148) scale(35.4429 32.171)">
<stop offset="0.6134" stop-color="#FFBC47" stop-opacity="0"/>
<stop offset="1" stop-color="#FF8900"/>
</radialGradient>
</defs>
</svg>
